<mxfile host="app.diagrams.net" agent="Mozilla/5.0 (Windows NT 10.0; Win64; x64) AppleWebKit/537.36 (KHTML, like Gecko) Chrome/135.0.0.0 Safari/537.36" version="26.0.13">
  <diagram name="第 1 页" id="rQW9AHOO8bKK24nJDKdm">
    <mxGraphModel dx="12825" dy="5782" grid="1" gridSize="10" guides="1" tooltips="1" connect="1" arrows="1" fold="1" page="1" pageScale="1" pageWidth="827" pageHeight="1169" math="0" shadow="0">
      <root>
        <mxCell id="0" />
        <mxCell id="1" parent="0" />
        <mxCell id="3dr3AcMasKzA3oTOAPOF-1" value="" style="edgeStyle=orthogonalEdgeStyle;rounded=0;orthogonalLoop=1;jettySize=auto;html=1;" edge="1" parent="1" source="3dr3AcMasKzA3oTOAPOF-3" target="3dr3AcMasKzA3oTOAPOF-21">
          <mxGeometry relative="1" as="geometry" />
        </mxCell>
        <mxCell id="3dr3AcMasKzA3oTOAPOF-2" style="edgeStyle=orthogonalEdgeStyle;rounded=0;orthogonalLoop=1;jettySize=auto;html=1;entryX=0.5;entryY=0;entryDx=0;entryDy=0;" edge="1" parent="1" source="3dr3AcMasKzA3oTOAPOF-3" target="3dr3AcMasKzA3oTOAPOF-26">
          <mxGeometry relative="1" as="geometry" />
        </mxCell>
        <mxCell id="3dr3AcMasKzA3oTOAPOF-3" value="&lt;div data-lake_diagram_content_editor_data=&quot;true&quot;&gt;【Manager】改造 部署接口&lt;/div&gt;" style="rounded=0;whiteSpace=wrap;html=1;fontFamily=小赖字体 sc;fillColor=#d5e8d4;strokeColor=#82b366;" vertex="1" parent="1">
          <mxGeometry x="-7120" y="-3530" width="120" height="60" as="geometry" />
        </mxCell>
        <mxCell id="3dr3AcMasKzA3oTOAPOF-4" style="edgeStyle=orthogonalEdgeStyle;rounded=0;orthogonalLoop=1;jettySize=auto;html=1;exitX=0.5;exitY=1;exitDx=0;exitDy=0;fontFamily=小赖字体 sc;dashed=1;fillColor=#f8cecc;strokeColor=#b85450;" edge="1" parent="1" source="3dr3AcMasKzA3oTOAPOF-5" target="3dr3AcMasKzA3oTOAPOF-7">
          <mxGeometry relative="1" as="geometry" />
        </mxCell>
        <mxCell id="3dr3AcMasKzA3oTOAPOF-5" value="&lt;div data-lake_diagram_content_editor_data=&quot;true&quot;&gt;生成一份root-ca.pem 、root-ca-key.pem&lt;/div&gt;" style="rounded=0;whiteSpace=wrap;html=1;fontFamily=小赖字体 sc;fillColor=#f8cecc;strokeColor=#b85450;" vertex="1" parent="1">
          <mxGeometry x="-7950" y="-3320" width="120" height="60" as="geometry" />
        </mxCell>
        <mxCell id="3dr3AcMasKzA3oTOAPOF-6" style="edgeStyle=orthogonalEdgeStyle;rounded=0;orthogonalLoop=1;jettySize=auto;html=1;exitX=0.5;exitY=1;exitDx=0;exitDy=0;fontFamily=小赖字体 sc;dashed=1;fillColor=#f8cecc;strokeColor=#b85450;" edge="1" parent="1" source="3dr3AcMasKzA3oTOAPOF-7" target="3dr3AcMasKzA3oTOAPOF-9">
          <mxGeometry relative="1" as="geometry" />
        </mxCell>
        <mxCell id="3dr3AcMasKzA3oTOAPOF-7" value="&lt;div data-lake_diagram_content_editor_data=&quot;true&quot;&gt;放到预置区&lt;span style=&quot;font-weight:bold;&quot;&gt;（所有预置区都用同一份）&lt;/span&gt;&lt;/div&gt;" style="rounded=0;whiteSpace=wrap;html=1;fontFamily=小赖字体 sc;fillColor=#f8cecc;strokeColor=#b85450;" vertex="1" parent="1">
          <mxGeometry x="-7950" y="-3220" width="120" height="60" as="geometry" />
        </mxCell>
        <mxCell id="3dr3AcMasKzA3oTOAPOF-8" value="" style="edgeStyle=orthogonalEdgeStyle;rounded=0;orthogonalLoop=1;jettySize=auto;html=1;" edge="1" parent="1" source="3dr3AcMasKzA3oTOAPOF-9" target="3dr3AcMasKzA3oTOAPOF-14">
          <mxGeometry relative="1" as="geometry" />
        </mxCell>
        <mxCell id="3dr3AcMasKzA3oTOAPOF-9" value="&lt;div data-lake_diagram_content_editor_data=&quot;true&quot;&gt;部署Manager时，通过provider传到主控机&lt;/div&gt;" style="rounded=0;whiteSpace=wrap;html=1;fontFamily=小赖字体 sc;fillColor=#f8cecc;strokeColor=#b85450;" vertex="1" parent="1">
          <mxGeometry x="-7950" y="-3110" width="120" height="60" as="geometry" />
        </mxCell>
        <mxCell id="3dr3AcMasKzA3oTOAPOF-10" value="&lt;font color=&quot;#df2a3f&quot;&gt;会随着介质，一并传输到主控机&lt;/font&gt;&lt;div data-lake_diagram_content_editor_data=&quot;true&quot;&gt;&lt;/div&gt;" style="whiteSpace=wrap;html=1;shape=mxgraph.basic.document;fontFamily=小赖字体 sc;align=left;fillColor=#fff2cc;strokeColor=#d6b656;" vertex="1" parent="1">
          <mxGeometry x="-7820" y="-3100" width="260" height="50" as="geometry" />
        </mxCell>
        <mxCell id="3dr3AcMasKzA3oTOAPOF-11" value="&lt;div data-lake_diagram_content_editor_data=&quot;true&quot;&gt;&lt;div data-lake_diagram_content_editor_data=&quot;true&quot;&gt;&lt;span style=&quot;color:rgb(223, 42, 63);&quot;&gt;放到mozi-playbooks里&lt;/span&gt;&lt;/div&gt;&lt;/div&gt;" style="whiteSpace=wrap;html=1;shape=mxgraph.basic.document;fontFamily=小赖字体 sc;align=left;fillColor=#fff2cc;strokeColor=#d6b656;" vertex="1" parent="1">
          <mxGeometry x="-7820" y="-3215" width="300" height="50" as="geometry" />
        </mxCell>
        <mxCell id="3dr3AcMasKzA3oTOAPOF-12" value="" style="edgeStyle=orthogonalEdgeStyle;rounded=0;orthogonalLoop=1;jettySize=auto;html=1;entryX=0.5;entryY=0;entryDx=0;entryDy=0;" edge="1" parent="1" source="3dr3AcMasKzA3oTOAPOF-14" target="3dr3AcMasKzA3oTOAPOF-16">
          <mxGeometry relative="1" as="geometry">
            <mxPoint x="-8250" y="-2900" as="targetPoint" />
          </mxGeometry>
        </mxCell>
        <mxCell id="3dr3AcMasKzA3oTOAPOF-13" value="" style="edgeStyle=orthogonalEdgeStyle;rounded=0;orthogonalLoop=1;jettySize=auto;html=1;entryX=0.5;entryY=0;entryDx=0;entryDy=0;" edge="1" parent="1" source="3dr3AcMasKzA3oTOAPOF-14" target="3dr3AcMasKzA3oTOAPOF-19">
          <mxGeometry relative="1" as="geometry">
            <mxPoint x="-7665" y="-2980" as="targetPoint" />
          </mxGeometry>
        </mxCell>
        <mxCell id="3dr3AcMasKzA3oTOAPOF-14" value="&lt;div data-lake_diagram_content_editor_data=&quot;true&quot;&gt;&lt;div data-lake_diagram_content_editor_data=&quot;true&quot;&gt;&lt;div style=&quot;text-align:left;&quot;&gt;修改配置模板，将以下内容做成默认配置：&lt;/div&gt;&lt;div style=&quot;text-align:left;&quot;&gt;HTTPS_ENABLED = true（xxx_vars文件）&lt;/div&gt;&lt;/div&gt;&lt;/div&gt;" style="rounded=0;whiteSpace=wrap;html=1;fontFamily=小赖字体 sc;fillColor=#f8cecc;strokeColor=#b85450;" vertex="1" parent="1">
          <mxGeometry x="-8035" y="-3010" width="290" height="60" as="geometry" />
        </mxCell>
        <mxCell id="3dr3AcMasKzA3oTOAPOF-15" value="" style="edgeStyle=orthogonalEdgeStyle;rounded=0;orthogonalLoop=1;jettySize=auto;html=1;" edge="1" parent="1" source="3dr3AcMasKzA3oTOAPOF-16" target="3dr3AcMasKzA3oTOAPOF-17">
          <mxGeometry relative="1" as="geometry" />
        </mxCell>
        <mxCell id="3dr3AcMasKzA3oTOAPOF-16" value="&lt;div data-lake_diagram_content_editor_data=&quot;true&quot;&gt;&lt;div data-lake_diagram_content_editor_data=&quot;true&quot;&gt;&lt;div style=&quot;text-align:left;&quot;&gt;&lt;div data-lake_diagram_content_editor_data=&quot;true&quot;&gt;&lt;div&gt;新增ES配置：&lt;/div&gt;&lt;div&gt;# transport&lt;br/&gt;&lt;/div&gt;&lt;div&gt;opendistro_security.ssl.transport.pemcert_filepath: ${HOSTNAME}.pem&lt;br/&gt;&lt;/div&gt;&lt;div&gt;opendistro_security.ssl.transport.pemkey_filepath: ${HOSTNAME}-key.pem&lt;br/&gt;&lt;/div&gt;&lt;div&gt;opendistro_security.ssl.transport.pemtrustedcas_filepath: root-ca.pem&lt;br/&gt;&lt;/div&gt;&lt;div&gt;# http&lt;br/&gt;&lt;/div&gt;&lt;div&gt;opendistro_security.ssl.http.pemcert_filepath: ${HOSTNAME}-https.pem&lt;br/&gt;&lt;/div&gt;&lt;div&gt;opendistro_security.ssl.http.pemkey_filepath: ${HOSTNAME}-key-https.pem&lt;br/&gt;&lt;/div&gt;&lt;div&gt;opendistro_security.ssl.http.pemtrustedcas_filepath: root-ca-https.pem&lt;/div&gt;&lt;/div&gt;&lt;/div&gt;&lt;/div&gt;&lt;/div&gt;" style="rounded=0;whiteSpace=wrap;html=1;fontFamily=小赖字体 sc;fillColor=#f8cecc;strokeColor=#b85450;" vertex="1" parent="1">
          <mxGeometry x="-8480" y="-2880" width="460" height="190" as="geometry" />
        </mxCell>
        <mxCell id="3dr3AcMasKzA3oTOAPOF-17" value="&lt;div data-lake_diagram_content_editor_data=&quot;true&quot;&gt;&lt;div data-lake_diagram_content_editor_data=&quot;true&quot;&gt;&lt;div style=&quot;text-align:left;&quot;&gt;&lt;div data-lake_diagram_content_editor_data=&quot;true&quot;&gt;&lt;div data-lake_diagram_content_editor_data=&quot;true&quot;&gt;&lt;div&gt;新增Kibana配置：&lt;/div&gt;&lt;div&gt;# HTTPS新增的配置&lt;br&gt;&lt;/div&gt;&lt;div&gt;server.ssl.enabled: true&lt;br&gt;&lt;/div&gt;&lt;div&gt;opendistro_security.cookie.secure: true&lt;br&gt;&lt;/div&gt;&lt;div&gt;elasticsearch.ssl.verificationMode: certificate&lt;br&gt;&lt;/div&gt;&lt;div&gt;elasticsearch.ssl.certificateAuthorities: [&quot;/usr/local/kibana/config/root-ca-https.pem&quot;]&lt;br&gt;&lt;/div&gt;&lt;div&gt;server.ssl.certificate: &quot;/usr/local/kibana/config/${HOSTNAME}.pem&quot;&lt;br&gt;&lt;/div&gt;&lt;div&gt;server.ssl.key: &quot;/usr/local/kibana/config/${HOSTNAME}-key.pem&quot;&lt;br&gt;&lt;/div&gt;&lt;div&gt;elasticsearch.requestHeadersWhitelist: [authorization,securitytenant]&lt;/div&gt;&lt;/div&gt;&lt;/div&gt;&lt;/div&gt;&lt;/div&gt;&lt;/div&gt;" style="rounded=0;whiteSpace=wrap;html=1;fontFamily=小赖字体 sc;fillColor=#f8cecc;strokeColor=#b85450;" vertex="1" parent="1">
          <mxGeometry x="-8510" y="-2650" width="520" height="190" as="geometry" />
        </mxCell>
        <mxCell id="3dr3AcMasKzA3oTOAPOF-18" value="" style="edgeStyle=orthogonalEdgeStyle;rounded=0;orthogonalLoop=1;jettySize=auto;html=1;entryX=0.5;entryY=0;entryDx=0;entryDy=0;" edge="1" parent="1" source="3dr3AcMasKzA3oTOAPOF-19" target="3dr3AcMasKzA3oTOAPOF-22">
          <mxGeometry relative="1" as="geometry">
            <mxPoint x="-7560" y="-2650" as="targetPoint" />
          </mxGeometry>
        </mxCell>
        <mxCell id="3dr3AcMasKzA3oTOAPOF-19" value="&lt;div data-lake_diagram_content_editor_data=&quot;true&quot;&gt;&lt;div data-lake_diagram_content_editor_data=&quot;true&quot;&gt;&lt;div style=&quot;text-align:left;&quot;&gt;&lt;div data-lake_diagram_content_editor_data=&quot;true&quot;&gt;&lt;div data-lake_diagram_content_editor_data=&quot;true&quot;&gt;&lt;div&gt;新增OS配置：&lt;/div&gt;&lt;div&gt;# transport&lt;br/&gt;&lt;/div&gt;&lt;div&gt;plugins.security.ssl.transport.pemcert_filepath: ${HOSTNAME}.pem&lt;br/&gt;&lt;/div&gt;&lt;div&gt;plugins.security.ssl.transport.pemkey_filepath: ${HOSTNAME}-key.pem&lt;br/&gt;&lt;/div&gt;&lt;div&gt;plugins.security.ssl.transport.pemtrustedcas_filepath: root-ca.pem&lt;br/&gt;&lt;/div&gt;&lt;div&gt;# http&lt;br/&gt;&lt;/div&gt;&lt;div&gt;plugins.security.ssl.http.pemcert_filepath: ${HOSTNAME}-https.pem&lt;br/&gt;&lt;/div&gt;&lt;div&gt;plugins.security.ssl.http.pemkey_filepath: ${HOSTNAME}-key-https.pem&lt;br/&gt;&lt;/div&gt;&lt;div&gt;plugins.security.ssl.http.pemtrustedcas_filepath: root-ca-https.pem&lt;/div&gt;&lt;/div&gt;&lt;/div&gt;&lt;/div&gt;&lt;/div&gt;&lt;/div&gt;" style="rounded=0;whiteSpace=wrap;html=1;fontFamily=小赖字体 sc;fillColor=#f8cecc;strokeColor=#b85450;" vertex="1" parent="1">
          <mxGeometry x="-7790" y="-2880" width="460" height="190" as="geometry" />
        </mxCell>
        <mxCell id="3dr3AcMasKzA3oTOAPOF-20" value="前置操作" style="swimlane;whiteSpace=wrap;html=1;fontFamily=小赖字体 sc;" vertex="1" parent="1">
          <mxGeometry x="-8510" y="-3370" width="1330" height="920" as="geometry" />
        </mxCell>
        <mxCell id="3dr3AcMasKzA3oTOAPOF-21" value="" style="shape=waypoint;sketch=0;size=6;pointerEvents=1;points=[];fillColor=#e1d5e7;resizable=0;rotatable=0;perimeter=centerPerimeter;snapToPoint=1;fontFamily=小赖字体 sc;strokeColor=#9673a6;rounded=0;" vertex="1" parent="3dr3AcMasKzA3oTOAPOF-20">
          <mxGeometry x="600" y="-10" width="20" height="20" as="geometry" />
        </mxCell>
        <mxCell id="3dr3AcMasKzA3oTOAPOF-22" value="&lt;div data-lake_diagram_content_editor_data=&quot;true&quot;&gt;&lt;div data-lake_diagram_content_editor_data=&quot;true&quot;&gt;&lt;div style=&quot;text-align:left;&quot;&gt;&lt;div data-lake_diagram_content_editor_data=&quot;true&quot;&gt;&lt;div data-lake_diagram_content_editor_data=&quot;true&quot;&gt;&lt;div data-lake_diagram_content_editor_data=&quot;true&quot;&gt;&lt;div&gt;新增dashboards配置：&lt;/div&gt;&lt;div&gt;&lt;div&gt;server.ssl.enabled: true&lt;/div&gt;&lt;div&gt;opensearch_security.cookie.secure: true&lt;/div&gt;&lt;div&gt;opensearch.ssl.verificationMode: certificate&lt;/div&gt;&lt;div&gt;opensearch.ssl.certificateAuthorities: [&quot;/usr/local/opensearch-dashboards/config/root-ca-https.pem&quot;]&lt;/div&gt;&lt;div&gt;server.ssl.certificate: &quot;/usr/local/opensearch-dashboards/config/${HOSTNAME}.pem&quot;&lt;/div&gt;&lt;div&gt;server.ssl.key: &quot;/usr/local/opensearch-dashboards/config/${HOSTNAME}-key.pem&quot;&lt;/div&gt;&lt;div&gt;opensearch.requestHeadersAllowlist: [authorization,securitytenant]&lt;/div&gt;&lt;/div&gt;&lt;/div&gt;&lt;/div&gt;&lt;/div&gt;&lt;/div&gt;&lt;/div&gt;&lt;/div&gt;" style="rounded=0;whiteSpace=wrap;html=1;fontFamily=小赖字体 sc;fillColor=#f8cecc;strokeColor=#b85450;" vertex="1" parent="3dr3AcMasKzA3oTOAPOF-20">
          <mxGeometry x="645" y="720" width="610" height="190" as="geometry" />
        </mxCell>
        <mxCell id="3dr3AcMasKzA3oTOAPOF-23" value="dashboards的配置文件并不能直接解析${HOSTNAME}，这点与OS不同；两种方法：&lt;br style=&quot;border-color: var(--border-color);&quot;&gt;&lt;span style=&quot;&quot;&gt;1. 通过config_sync_template来实现；在配置同步时，动态地生成每个主机的配置；&lt;/span&gt;&lt;br style=&quot;border-color: var(--border-color);&quot;&gt;&lt;span style=&quot;&quot;&gt;2. dynamic_template，因为dashboards只有一台，可以通过${roles.OSDashboards.instances[0].hostname}动态生成；&lt;/span&gt;&lt;div data-lake_diagram_content_editor_data=&quot;true&quot;&gt;&lt;/div&gt;" style="whiteSpace=wrap;html=1;shape=mxgraph.basic.document;fontFamily=小赖字体 sc;align=left;fillColor=#fff2cc;strokeColor=#d6b656;fontColor=#FF3333;" vertex="1" parent="3dr3AcMasKzA3oTOAPOF-20">
          <mxGeometry x="960" y="690" width="335" height="120" as="geometry" />
        </mxCell>
        <mxCell id="3dr3AcMasKzA3oTOAPOF-24" style="edgeStyle=orthogonalEdgeStyle;rounded=0;orthogonalLoop=1;jettySize=auto;html=1;entryX=0.5;entryY=0;entryDx=0;entryDy=0;" edge="1" parent="1" source="3dr3AcMasKzA3oTOAPOF-26" target="3dr3AcMasKzA3oTOAPOF-27">
          <mxGeometry relative="1" as="geometry" />
        </mxCell>
        <mxCell id="3dr3AcMasKzA3oTOAPOF-25" style="edgeStyle=orthogonalEdgeStyle;rounded=0;orthogonalLoop=1;jettySize=auto;html=1;entryX=0.5;entryY=0;entryDx=0;entryDy=0;" edge="1" parent="1" source="3dr3AcMasKzA3oTOAPOF-26" target="3dr3AcMasKzA3oTOAPOF-29">
          <mxGeometry relative="1" as="geometry" />
        </mxCell>
        <mxCell id="3dr3AcMasKzA3oTOAPOF-26" value="调用Manager部署接口" style="rounded=0;whiteSpace=wrap;html=1;fontFamily=小赖字体 sc;fillColor=#d5e8d4;strokeColor=#82b366;" vertex="1" parent="1">
          <mxGeometry x="-6430" y="-3440" width="120" height="60" as="geometry" />
        </mxCell>
        <mxCell id="3dr3AcMasKzA3oTOAPOF-27" value="&lt;div data-lake_diagram_content_editor_data=&quot;true&quot;&gt;&lt;div data-lake_diagram_content_editor_data=&quot;true&quot;&gt;&lt;div data-lake_diagram_content_editor_data=&quot;true&quot;&gt;部署ES时，请求体中有变化的参数&lt;/div&gt;&lt;div data-lake_diagram_content_editor_data=&quot;true&quot;&gt;&quot;customConfigs&quot;: [&lt;/div&gt;&lt;div data-lake_diagram_content_editor_data=&quot;true&quot;&gt;&amp;nbsp; &amp;nbsp; {&lt;/div&gt;&lt;div data-lake_diagram_content_editor_data=&quot;true&quot;&gt;&amp;nbsp; &amp;nbsp; &amp;nbsp; &amp;nbsp; &quot;serviceName&quot;: &quot;Elasticsearch&quot;,&lt;/div&gt;&lt;div data-lake_diagram_content_editor_data=&quot;true&quot;&gt;&amp;nbsp; &amp;nbsp; &amp;nbsp; &amp;nbsp; &quot;configName&quot;: &quot;Elasticsearch_vars.yaml&quot;,&lt;/div&gt;&lt;div data-lake_diagram_content_editor_data=&quot;true&quot;&gt;&amp;nbsp; &amp;nbsp; &amp;nbsp; &amp;nbsp; &quot;props&quot;: [&lt;/div&gt;&lt;div data-lake_diagram_content_editor_data=&quot;true&quot;&gt;&amp;nbsp; &amp;nbsp; &amp;nbsp; &amp;nbsp; &amp;nbsp; &amp;nbsp; {&lt;/div&gt;&lt;div data-lake_diagram_content_editor_data=&quot;true&quot;&gt;&amp;nbsp; &amp;nbsp; &amp;nbsp; &amp;nbsp; &amp;nbsp; &amp;nbsp; &amp;nbsp; &amp;nbsp; &quot;propName&quot;: &quot;HTTPS_ENABLED&quot;,&lt;/div&gt;&lt;div data-lake_diagram_content_editor_data=&quot;true&quot;&gt;&amp;nbsp; &amp;nbsp; &amp;nbsp; &amp;nbsp; &amp;nbsp; &amp;nbsp; &amp;nbsp; &amp;nbsp; &quot;propValue&quot;: &quot;true&quot; // 如果是关闭https的状态，此处传false&lt;/div&gt;&lt;div data-lake_diagram_content_editor_data=&quot;true&quot;&gt;&amp;nbsp; &amp;nbsp; &amp;nbsp; &amp;nbsp; &amp;nbsp; &amp;nbsp; },&lt;/div&gt;&lt;div data-lake_diagram_content_editor_data=&quot;true&quot;&gt;&amp;nbsp; &amp;nbsp; &amp;nbsp; &amp;nbsp; &amp;nbsp; &amp;nbsp; {&lt;/div&gt;&lt;div data-lake_diagram_content_editor_data=&quot;true&quot;&gt;&amp;nbsp; &amp;nbsp; &amp;nbsp; &amp;nbsp; &amp;nbsp; &amp;nbsp; &amp;nbsp; &amp;nbsp; &quot;propName&quot;: &quot;root_ca_key_password&quot;,&lt;/div&gt;&lt;div data-lake_diagram_content_editor_data=&quot;true&quot;&gt;&amp;nbsp; &amp;nbsp; &amp;nbsp; &amp;nbsp; &amp;nbsp; &amp;nbsp; &amp;nbsp; &amp;nbsp; &quot;propValue&quot;: &quot;xxx&quot;, // rsa加密，与重置密码的加密方法一致&lt;/div&gt;&lt;div data-lake_diagram_content_editor_data=&quot;true&quot;&gt;&amp;nbsp; &amp;nbsp; &amp;nbsp; &amp;nbsp; &amp;nbsp; &amp;nbsp; &amp;nbsp; &amp;nbsp; &quot;propType&quot;: &quot;PASSWORD&quot;&lt;/div&gt;&lt;div data-lake_diagram_content_editor_data=&quot;true&quot;&gt;&amp;nbsp; &amp;nbsp; &amp;nbsp; &amp;nbsp; &amp;nbsp; &amp;nbsp; }&lt;/div&gt;&lt;div data-lake_diagram_content_editor_data=&quot;true&quot;&gt;&amp;nbsp; &amp;nbsp; &amp;nbsp; &amp;nbsp; ]&lt;/div&gt;&lt;div data-lake_diagram_content_editor_data=&quot;true&quot;&gt;&amp;nbsp; &amp;nbsp; },&lt;/div&gt;&lt;div data-lake_diagram_content_editor_data=&quot;true&quot;&gt;&amp;nbsp; &amp;nbsp; {&lt;/div&gt;&lt;div data-lake_diagram_content_editor_data=&quot;true&quot;&gt;&amp;nbsp; &amp;nbsp; &amp;nbsp; &amp;nbsp; &quot;serviceName&quot;: &quot;Elasticsearch&quot;,&lt;/div&gt;&lt;div data-lake_diagram_content_editor_data=&quot;true&quot;&gt;&amp;nbsp; &amp;nbsp; &amp;nbsp; &amp;nbsp; &quot;configName&quot;: &quot;elasticsearch.yml&quot;,&lt;/div&gt;&lt;div data-lake_diagram_content_editor_data=&quot;true&quot;&gt;&amp;nbsp; &amp;nbsp; &amp;nbsp; &amp;nbsp; &quot;props&quot;: [&lt;/div&gt;&lt;div data-lake_diagram_content_editor_data=&quot;true&quot;&gt;&amp;nbsp; &amp;nbsp; &amp;nbsp; &amp;nbsp; &amp;nbsp; &amp;nbsp; {&lt;/div&gt;&lt;div data-lake_diagram_content_editor_data=&quot;true&quot;&gt;&amp;nbsp; &amp;nbsp; &amp;nbsp; &amp;nbsp; &amp;nbsp; &amp;nbsp; &amp;nbsp; &amp;nbsp; &quot;propName&quot;: &quot;opendistro_security.ssl.http.enabled&quot;,&lt;/div&gt;&lt;div data-lake_diagram_content_editor_data=&quot;true&quot;&gt;&amp;nbsp; &amp;nbsp; &amp;nbsp; &amp;nbsp; &amp;nbsp; &amp;nbsp; &amp;nbsp; &amp;nbsp; &quot;propValue&quot;: &quot;true&quot; // 如果是关闭https的状态，此处传false&lt;/div&gt;&lt;div data-lake_diagram_content_editor_data=&quot;true&quot;&gt;&amp;nbsp; &amp;nbsp; &amp;nbsp; &amp;nbsp; &amp;nbsp; &amp;nbsp; }&lt;/div&gt;&lt;div data-lake_diagram_content_editor_data=&quot;true&quot;&gt;&amp;nbsp; &amp;nbsp; &amp;nbsp; &amp;nbsp; ]&lt;/div&gt;&lt;div data-lake_diagram_content_editor_data=&quot;true&quot;&gt;&amp;nbsp; &amp;nbsp; },&lt;/div&gt;&lt;div data-lake_diagram_content_editor_data=&quot;true&quot;&gt;&amp;nbsp; &amp;nbsp; {&lt;/div&gt;&lt;div data-lake_diagram_content_editor_data=&quot;true&quot;&gt;&amp;nbsp; &amp;nbsp; &amp;nbsp; &amp;nbsp; &quot;serviceName&quot;: &quot;Elasticsearch&quot;,&lt;/div&gt;&lt;div data-lake_diagram_content_editor_data=&quot;true&quot;&gt;&amp;nbsp; &amp;nbsp; &amp;nbsp; &amp;nbsp; &quot;configName&quot;: &quot;kibana.yml&quot;,&lt;/div&gt;&lt;div data-lake_diagram_content_editor_data=&quot;true&quot;&gt;&amp;nbsp; &amp;nbsp; &amp;nbsp; &amp;nbsp; &quot;props&quot;: [&lt;/div&gt;&lt;div data-lake_diagram_content_editor_data=&quot;true&quot;&gt;&amp;nbsp; &amp;nbsp; &amp;nbsp; &amp;nbsp; &amp;nbsp; &amp;nbsp; {&lt;/div&gt;&lt;div data-lake_diagram_content_editor_data=&quot;true&quot;&gt;&amp;nbsp; &amp;nbsp; &amp;nbsp; &amp;nbsp; &amp;nbsp; &amp;nbsp; &amp;nbsp; &amp;nbsp; &quot;propName&quot;: &quot;opendistro_security.cookie.secure&quot;,&lt;/div&gt;&lt;div data-lake_diagram_content_editor_data=&quot;true&quot;&gt;&amp;nbsp; &amp;nbsp; &amp;nbsp; &amp;nbsp; &amp;nbsp; &amp;nbsp; &amp;nbsp; &amp;nbsp; &quot;propValue&quot;: &quot;true&quot; // 如果是关闭https的状态，此处传false&lt;/div&gt;&lt;div data-lake_diagram_content_editor_data=&quot;true&quot;&gt;&amp;nbsp; &amp;nbsp; &amp;nbsp; &amp;nbsp; &amp;nbsp; &amp;nbsp; },&lt;/div&gt;&lt;div data-lake_diagram_content_editor_data=&quot;true&quot;&gt;&amp;nbsp; &amp;nbsp; &amp;nbsp; &amp;nbsp; &amp;nbsp; &amp;nbsp; {&lt;/div&gt;&lt;div data-lake_diagram_content_editor_data=&quot;true&quot;&gt;&amp;nbsp; &amp;nbsp; &amp;nbsp; &amp;nbsp; &amp;nbsp; &amp;nbsp; &amp;nbsp; &amp;nbsp; &quot;propName&quot;: &quot;elasticsearch.hosts&quot;,&lt;/div&gt;&lt;div data-lake_diagram_content_editor_data=&quot;true&quot;&gt;&amp;nbsp; &amp;nbsp; &amp;nbsp; &amp;nbsp; &amp;nbsp; &amp;nbsp; &amp;nbsp; &amp;nbsp; &quot;propValue&quot;: &quot;[\&quot;https://node01:9200\&quot;, \&quot;https://node02:9200\&quot;, \&quot;https://node03:9200\&quot;]&quot; // 如果是关闭https的状态，此处的https改为http&lt;/div&gt;&lt;div data-lake_diagram_content_editor_data=&quot;true&quot;&gt;&amp;nbsp; &amp;nbsp; &amp;nbsp; &amp;nbsp; &amp;nbsp; &amp;nbsp; }&lt;/div&gt;&lt;div data-lake_diagram_content_editor_data=&quot;true&quot;&gt;&amp;nbsp; &amp;nbsp; &amp;nbsp; &amp;nbsp; ]&lt;/div&gt;&lt;div data-lake_diagram_content_editor_data=&quot;true&quot;&gt;&amp;nbsp; &amp;nbsp; }&lt;/div&gt;&lt;div data-lake_diagram_content_editor_data=&quot;true&quot;&gt;]&lt;/div&gt;&lt;/div&gt;&lt;/div&gt;" style="rounded=0;whiteSpace=wrap;html=1;fontFamily=小赖字体 sc;fillColor=#e1d5e7;strokeColor=#9673a6;align=left;" vertex="1" parent="1">
          <mxGeometry x="-7240" y="-3290" width="870" height="620" as="geometry" />
        </mxCell>
        <mxCell id="3dr3AcMasKzA3oTOAPOF-28" style="edgeStyle=orthogonalEdgeStyle;rounded=0;orthogonalLoop=1;jettySize=auto;html=1;entryX=0.5;entryY=0;entryDx=0;entryDy=0;" edge="1" parent="1" source="3dr3AcMasKzA3oTOAPOF-29" target="3dr3AcMasKzA3oTOAPOF-36">
          <mxGeometry relative="1" as="geometry" />
        </mxCell>
        <mxCell id="3dr3AcMasKzA3oTOAPOF-29" value="&lt;div data-lake_diagram_content_editor_data=&quot;true&quot;&gt;&lt;div data-lake_diagram_content_editor_data=&quot;true&quot;&gt;&lt;div data-lake_diagram_content_editor_data=&quot;true&quot;&gt;&lt;div data-lake_diagram_content_editor_data=&quot;true&quot;&gt;&lt;div&gt;部署OS时，请求体中有变化的参数&lt;/div&gt;&quot;customConfigs&quot;: [&lt;br&gt;&lt;div&gt;&amp;nbsp; &amp;nbsp; {&lt;br&gt;&lt;/div&gt;&lt;div&gt;&amp;nbsp; &amp;nbsp; &amp;nbsp; &amp;nbsp; &quot;serviceName&quot;: &quot;OpenSearch&quot;,&lt;br&gt;&lt;/div&gt;&lt;div&gt;&amp;nbsp; &amp;nbsp; &amp;nbsp; &amp;nbsp; &quot;configName&quot;: &quot;OpenSearch_vars.yaml&quot;,&lt;br&gt;&lt;/div&gt;&lt;div&gt;&amp;nbsp; &amp;nbsp; &amp;nbsp; &amp;nbsp; &quot;props&quot;: [&lt;br&gt;&lt;/div&gt;&lt;div&gt;&amp;nbsp; &amp;nbsp; &amp;nbsp; &amp;nbsp; &amp;nbsp; &amp;nbsp; {&lt;br&gt;&lt;/div&gt;&lt;div&gt;&amp;nbsp; &amp;nbsp; &amp;nbsp; &amp;nbsp; &amp;nbsp; &amp;nbsp; &amp;nbsp; &amp;nbsp; &quot;propName&quot;: &quot;HTTPS_ENABLED&quot;,&lt;br&gt;&lt;/div&gt;&lt;div&gt;&amp;nbsp; &amp;nbsp; &amp;nbsp; &amp;nbsp; &amp;nbsp; &amp;nbsp; &amp;nbsp; &amp;nbsp; &quot;propValue&quot;: &quot;true&quot; // 如果是关闭https的状态，此处传false&lt;br&gt;&lt;/div&gt;&lt;div&gt;&amp;nbsp; &amp;nbsp; &amp;nbsp; &amp;nbsp; &amp;nbsp; &amp;nbsp; },&lt;br&gt;&lt;/div&gt;&lt;div&gt;&amp;nbsp; &amp;nbsp; &amp;nbsp; &amp;nbsp; &amp;nbsp; &amp;nbsp; {&lt;br&gt;&lt;/div&gt;&lt;div&gt;&amp;nbsp; &amp;nbsp; &amp;nbsp; &amp;nbsp; &amp;nbsp; &amp;nbsp; &amp;nbsp; &amp;nbsp; &quot;propName&quot;: &quot;root_ca_key_password&quot;,&lt;br&gt;&lt;/div&gt;&lt;div&gt;&amp;nbsp; &amp;nbsp; &amp;nbsp; &amp;nbsp; &amp;nbsp; &amp;nbsp; &amp;nbsp; &amp;nbsp; &quot;propValue&quot;: &quot;xxx&quot;, // rsa加密，与重置密码的加密方法一致&lt;br&gt;&lt;/div&gt;&lt;div&gt;&amp;nbsp; &amp;nbsp; &amp;nbsp; &amp;nbsp; &amp;nbsp; &amp;nbsp; &amp;nbsp; &amp;nbsp; &quot;propType&quot;: &quot;PASSWORD&quot;&lt;br&gt;&lt;/div&gt;&lt;div&gt;&amp;nbsp; &amp;nbsp; &amp;nbsp; &amp;nbsp; &amp;nbsp; &amp;nbsp; }&lt;br&gt;&lt;/div&gt;&lt;div&gt;&amp;nbsp; &amp;nbsp; &amp;nbsp; &amp;nbsp; ]&lt;br&gt;&lt;/div&gt;&lt;div&gt;&amp;nbsp; &amp;nbsp; },&lt;br&gt;&lt;/div&gt;&lt;div&gt;&amp;nbsp; &amp;nbsp; {&lt;br&gt;&lt;/div&gt;&lt;div&gt;&amp;nbsp; &amp;nbsp; &amp;nbsp; &amp;nbsp; &quot;serviceName&quot;: &quot;OpenSearch&quot;,&lt;br&gt;&lt;/div&gt;&lt;div&gt;&amp;nbsp; &amp;nbsp; &amp;nbsp; &amp;nbsp; &quot;configName&quot;: &quot;opensearch.yml&quot;,&lt;br&gt;&lt;/div&gt;&lt;div&gt;&amp;nbsp; &amp;nbsp; &amp;nbsp; &amp;nbsp; &quot;props&quot;: [&lt;br&gt;&lt;/div&gt;&lt;div&gt;&amp;nbsp; &amp;nbsp; &amp;nbsp; &amp;nbsp; &amp;nbsp; &amp;nbsp; {&lt;br&gt;&lt;/div&gt;&lt;div&gt;&amp;nbsp; &amp;nbsp; &amp;nbsp; &amp;nbsp; &amp;nbsp; &amp;nbsp; &amp;nbsp; &amp;nbsp; &quot;propName&quot;: &quot;plugins.security.ssl.http.enabled&quot;,&lt;br&gt;&lt;/div&gt;&lt;div&gt;&amp;nbsp; &amp;nbsp; &amp;nbsp; &amp;nbsp; &amp;nbsp; &amp;nbsp; &amp;nbsp; &amp;nbsp; &quot;propValue&quot;: &quot;true&quot; // 如果是关闭https的状态，此处传false&lt;br&gt;&lt;/div&gt;&lt;div&gt;&amp;nbsp; &amp;nbsp; &amp;nbsp; &amp;nbsp; &amp;nbsp; &amp;nbsp; }&lt;br&gt;&lt;/div&gt;&lt;div&gt;&amp;nbsp; &amp;nbsp; &amp;nbsp; &amp;nbsp; ]&lt;br&gt;&lt;/div&gt;&lt;div&gt;&amp;nbsp; &amp;nbsp; },&lt;br&gt;&lt;/div&gt;&lt;div&gt;&amp;nbsp; &amp;nbsp; {&lt;br&gt;&lt;/div&gt;&lt;div&gt;&amp;nbsp; &amp;nbsp; &amp;nbsp; &amp;nbsp; &quot;serviceName&quot;: &quot;OpenSearch&quot;,&lt;br&gt;&lt;/div&gt;&lt;div&gt;&amp;nbsp; &amp;nbsp; &amp;nbsp; &amp;nbsp; &quot;configName&quot;: &quot;opensearch_dashboards.yml&quot;,&lt;br&gt;&lt;/div&gt;&lt;div&gt;&amp;nbsp; &amp;nbsp; &amp;nbsp; &amp;nbsp; &quot;props&quot;: [&lt;br&gt;&lt;/div&gt;&lt;div&gt;&amp;nbsp; &amp;nbsp; &amp;nbsp; &amp;nbsp; &amp;nbsp; &amp;nbsp; {&lt;br&gt;&lt;/div&gt;&lt;div&gt;&amp;nbsp; &amp;nbsp; &amp;nbsp; &amp;nbsp; &amp;nbsp; &amp;nbsp; &amp;nbsp; &amp;nbsp; &quot;propName&quot;: &quot;opensearch_security.cookie.secure&quot;,&lt;br&gt;&lt;/div&gt;&lt;div&gt;&amp;nbsp; &amp;nbsp; &amp;nbsp; &amp;nbsp; &amp;nbsp; &amp;nbsp; &amp;nbsp; &amp;nbsp; &quot;propValue&quot;: &quot;true&quot; // 如果是关闭https的状态，此处传false&lt;br&gt;&lt;/div&gt;&lt;div&gt;&amp;nbsp; &amp;nbsp; &amp;nbsp; &amp;nbsp; &amp;nbsp; &amp;nbsp; },&lt;br&gt;&lt;/div&gt;&lt;div&gt;&amp;nbsp; &amp;nbsp; &amp;nbsp; &amp;nbsp; &amp;nbsp; &amp;nbsp; {&lt;br&gt;&lt;/div&gt;&lt;div&gt;&amp;nbsp; &amp;nbsp; &amp;nbsp; &amp;nbsp; &amp;nbsp; &amp;nbsp; &amp;nbsp; &amp;nbsp; &quot;propName&quot;: &quot;opensearch.hosts&quot;,&lt;br&gt;&lt;/div&gt;&lt;div&gt;&amp;nbsp; &amp;nbsp; &amp;nbsp; &amp;nbsp; &amp;nbsp; &amp;nbsp; &amp;nbsp; &amp;nbsp; &quot;propValue&quot;: &quot;[\&quot;https://node01:9200\&quot;, \&quot;https://node02:9200\&quot;, \&quot;https://node03:9200\&quot;]&quot; // 如果是关闭https的状态，此处的https改为http&lt;br&gt;&lt;/div&gt;&lt;div&gt;&amp;nbsp; &amp;nbsp; &amp;nbsp; &amp;nbsp; &amp;nbsp; &amp;nbsp; }&lt;br&gt;&lt;/div&gt;&lt;div&gt;&amp;nbsp; &amp;nbsp; &amp;nbsp; &amp;nbsp; ]&lt;br&gt;&lt;/div&gt;&lt;div&gt;&amp;nbsp; &amp;nbsp; }&lt;br&gt;&lt;/div&gt;&lt;div&gt;]&lt;/div&gt;&lt;/div&gt;&lt;/div&gt;&lt;/div&gt;&lt;/div&gt;" style="rounded=0;whiteSpace=wrap;html=1;fontFamily=小赖字体 sc;fillColor=#e1d5e7;strokeColor=#9673a6;align=left;" vertex="1" parent="1">
          <mxGeometry x="-6350" y="-3290" width="870" height="620" as="geometry" />
        </mxCell>
        <mxCell id="3dr3AcMasKzA3oTOAPOF-30" value="" style="edgeStyle=orthogonalEdgeStyle;rounded=0;orthogonalLoop=1;jettySize=auto;html=1;" edge="1" parent="1" source="3dr3AcMasKzA3oTOAPOF-31" target="3dr3AcMasKzA3oTOAPOF-33">
          <mxGeometry relative="1" as="geometry" />
        </mxCell>
        <mxCell id="3dr3AcMasKzA3oTOAPOF-31" value="&lt;div data-lake_diagram_content_editor_data=&quot;true&quot;&gt;&lt;div data-lake_diagram_content_editor_data=&quot;true&quot;&gt;&lt;div style=&quot;text-align:left;&quot;&gt;&lt;div data-lake_diagram_content_editor_data=&quot;true&quot;&gt;&lt;div style=&quot;text-align:center;&quot;&gt;【主控机】【ES】通过两个root-xx.pem + 控制台传参中的私钥root_ca_key_password，生成admin-xxx.pem&lt;/div&gt;&lt;/div&gt;&lt;/div&gt;&lt;/div&gt;&lt;/div&gt;" style="rounded=0;whiteSpace=wrap;html=1;fontFamily=小赖字体 sc;fillColor=#f8cecc;strokeColor=#b85450;" vertex="1" parent="1">
          <mxGeometry x="-7030" y="-2610.5" width="310" height="111" as="geometry" />
        </mxCell>
        <mxCell id="3dr3AcMasKzA3oTOAPOF-32" value="" style="edgeStyle=orthogonalEdgeStyle;rounded=0;orthogonalLoop=1;jettySize=auto;html=1;" edge="1" parent="1" source="3dr3AcMasKzA3oTOAPOF-33" target="3dr3AcMasKzA3oTOAPOF-38">
          <mxGeometry relative="1" as="geometry" />
        </mxCell>
        <mxCell id="3dr3AcMasKzA3oTOAPOF-33" value="&lt;div data-lake_diagram_content_editor_data=&quot;true&quot;&gt;&lt;div data-lake_diagram_content_editor_data=&quot;true&quot;&gt;&lt;div style=&quot;text-align:left;&quot;&gt;&lt;div data-lake_diagram_content_editor_data=&quot;true&quot;&gt;&lt;div style=&quot;text-align:center;&quot;&gt;&lt;div data-lake_diagram_content_editor_data=&quot;true&quot;&gt;【主控机】【ES】生成root-xxx-https.pem的两个pem + esearch.cer&lt;/div&gt;&lt;/div&gt;&lt;/div&gt;&lt;/div&gt;&lt;/div&gt;&lt;/div&gt;" style="rounded=0;whiteSpace=wrap;html=1;fontFamily=小赖字体 sc;fillColor=#f8cecc;strokeColor=#b85450;" vertex="1" parent="1">
          <mxGeometry x="-7030" y="-2419.5" width="310" height="111" as="geometry" />
        </mxCell>
        <mxCell id="3dr3AcMasKzA3oTOAPOF-34" style="edgeStyle=orthogonalEdgeStyle;rounded=0;orthogonalLoop=1;jettySize=auto;html=1;entryX=0.474;entryY=0.023;entryDx=0;entryDy=0;entryPerimeter=0;" edge="1" parent="1" source="3dr3AcMasKzA3oTOAPOF-27" target="3dr3AcMasKzA3oTOAPOF-31">
          <mxGeometry relative="1" as="geometry" />
        </mxCell>
        <mxCell id="3dr3AcMasKzA3oTOAPOF-35" style="edgeStyle=orthogonalEdgeStyle;rounded=0;orthogonalLoop=1;jettySize=auto;html=1;entryX=0.5;entryY=0;entryDx=0;entryDy=0;" edge="1" parent="1" source="3dr3AcMasKzA3oTOAPOF-36" target="3dr3AcMasKzA3oTOAPOF-38">
          <mxGeometry relative="1" as="geometry" />
        </mxCell>
        <mxCell id="3dr3AcMasKzA3oTOAPOF-36" value="&lt;div data-lake_diagram_content_editor_data=&quot;true&quot;&gt;&lt;div data-lake_diagram_content_editor_data=&quot;true&quot;&gt;&lt;div style=&quot;text-align:left;&quot;&gt;&lt;div data-lake_diagram_content_editor_data=&quot;true&quot;&gt;&lt;div style=&quot;text-align:center;&quot;&gt;【主控机】【OS】&lt;span style=&quot;text-align: left; background-color: transparent; color: light-dark(rgb(0, 0, 0), rgb(255, 255, 255));&quot;&gt;生成root-ca-key-https.pem、root-ca-https.pem、admin-key.pem、admin.pem、esearch.cer&lt;/span&gt;&lt;/div&gt;&lt;/div&gt;&lt;/div&gt;&lt;/div&gt;&lt;/div&gt;" style="rounded=0;whiteSpace=wrap;html=1;fontFamily=小赖字体 sc;fillColor=#f8cecc;strokeColor=#b85450;" vertex="1" parent="1">
          <mxGeometry x="-6120" y="-2420" width="310" height="111" as="geometry" />
        </mxCell>
        <mxCell id="3dr3AcMasKzA3oTOAPOF-37" value="" style="edgeStyle=orthogonalEdgeStyle;rounded=0;orthogonalLoop=1;jettySize=auto;html=1;" edge="1" parent="1" source="3dr3AcMasKzA3oTOAPOF-38" target="3dr3AcMasKzA3oTOAPOF-40">
          <mxGeometry relative="1" as="geometry" />
        </mxCell>
        <mxCell id="3dr3AcMasKzA3oTOAPOF-38" value="&lt;div data-lake_diagram_content_editor_data=&quot;true&quot;&gt;&lt;div data-lake_diagram_content_editor_data=&quot;true&quot;&gt;&lt;div style=&quot;text-align:left;&quot;&gt;&lt;div data-lake_diagram_content_editor_data=&quot;true&quot;&gt;&lt;div style=&quot;text-align:center;&quot;&gt;&lt;div data-lake_diagram_content_editor_data=&quot;true&quot;&gt;&lt;div data-lake_diagram_content_editor_data=&quot;true&quot;&gt;&lt;div&gt;安装ES/OS&lt;/div&gt;&lt;div&gt;（原本就有）&lt;/div&gt;&lt;/div&gt;&lt;/div&gt;&lt;/div&gt;&lt;/div&gt;&lt;/div&gt;&lt;/div&gt;&lt;/div&gt;" style="rounded=0;whiteSpace=wrap;html=1;fontFamily=小赖字体 sc;fillColor=#f8cecc;strokeColor=#b85450;" vertex="1" parent="1">
          <mxGeometry x="-6620" y="-2230" width="310" height="111" as="geometry" />
        </mxCell>
        <mxCell id="3dr3AcMasKzA3oTOAPOF-39" value="" style="edgeStyle=orthogonalEdgeStyle;rounded=0;orthogonalLoop=1;jettySize=auto;html=1;" edge="1" parent="1" source="3dr3AcMasKzA3oTOAPOF-40" target="3dr3AcMasKzA3oTOAPOF-42">
          <mxGeometry relative="1" as="geometry" />
        </mxCell>
        <mxCell id="3dr3AcMasKzA3oTOAPOF-40" value="&lt;div data-lake_diagram_content_editor_data=&quot;true&quot;&gt;&lt;div data-lake_diagram_content_editor_data=&quot;true&quot;&gt;&lt;div style=&quot;text-align:left;&quot;&gt;&lt;div data-lake_diagram_content_editor_data=&quot;true&quot;&gt;&lt;div style=&quot;text-align:center;&quot;&gt;&lt;div data-lake_diagram_content_editor_data=&quot;true&quot;&gt;&lt;div data-lake_diagram_content_editor_data=&quot;true&quot;&gt;&lt;div data-lake_diagram_content_editor_data=&quot;true&quot;&gt;将上面7个证书拷贝到每个主机&lt;/div&gt;&lt;/div&gt;&lt;/div&gt;&lt;/div&gt;&lt;/div&gt;&lt;/div&gt;&lt;/div&gt;&lt;/div&gt;" style="rounded=0;whiteSpace=wrap;html=1;fontFamily=小赖字体 sc;fillColor=#f8cecc;strokeColor=#b85450;" vertex="1" parent="1">
          <mxGeometry x="-6620" y="-2039" width="310" height="111" as="geometry" />
        </mxCell>
        <mxCell id="3dr3AcMasKzA3oTOAPOF-41" value="" style="edgeStyle=orthogonalEdgeStyle;rounded=0;orthogonalLoop=1;jettySize=auto;html=1;" edge="1" parent="1" source="3dr3AcMasKzA3oTOAPOF-42" target="3dr3AcMasKzA3oTOAPOF-44">
          <mxGeometry relative="1" as="geometry" />
        </mxCell>
        <mxCell id="3dr3AcMasKzA3oTOAPOF-42" value="&lt;div data-lake_diagram_content_editor_data=&quot;true&quot;&gt;&lt;div data-lake_diagram_content_editor_data=&quot;true&quot;&gt;&lt;div style=&quot;text-align:left;&quot;&gt;&lt;div data-lake_diagram_content_editor_data=&quot;true&quot;&gt;&lt;div style=&quot;text-align:center;&quot;&gt;&lt;div data-lake_diagram_content_editor_data=&quot;true&quot;&gt;&lt;div data-lake_diagram_content_editor_data=&quot;true&quot;&gt;&lt;div data-lake_diagram_content_editor_data=&quot;true&quot;&gt;&lt;div data-lake_diagram_content_editor_data=&quot;true&quot;&gt;&lt;div&gt;生成TCP节点证书&lt;/div&gt;&lt;div&gt;（原本就有）&lt;/div&gt;&lt;/div&gt;&lt;/div&gt;&lt;/div&gt;&lt;/div&gt;&lt;/div&gt;&lt;/div&gt;&lt;/div&gt;&lt;/div&gt;&lt;/div&gt;" style="rounded=0;whiteSpace=wrap;html=1;fontFamily=小赖字体 sc;fillColor=#f8cecc;strokeColor=#b85450;" vertex="1" parent="1">
          <mxGeometry x="-6620" y="-1848" width="310" height="111" as="geometry" />
        </mxCell>
        <mxCell id="3dr3AcMasKzA3oTOAPOF-43" value="" style="edgeStyle=orthogonalEdgeStyle;rounded=0;orthogonalLoop=1;jettySize=auto;html=1;" edge="1" parent="1" source="3dr3AcMasKzA3oTOAPOF-44" target="3dr3AcMasKzA3oTOAPOF-46">
          <mxGeometry relative="1" as="geometry" />
        </mxCell>
        <mxCell id="3dr3AcMasKzA3oTOAPOF-44" value="&lt;div data-lake_diagram_content_editor_data=&quot;true&quot;&gt;&lt;div data-lake_diagram_content_editor_data=&quot;true&quot;&gt;&lt;div style=&quot;text-align:left;&quot;&gt;&lt;div data-lake_diagram_content_editor_data=&quot;true&quot;&gt;&lt;div style=&quot;text-align:center;&quot;&gt;&lt;div data-lake_diagram_content_editor_data=&quot;true&quot;&gt;&lt;div data-lake_diagram_content_editor_data=&quot;true&quot;&gt;&lt;div data-lake_diagram_content_editor_data=&quot;true&quot;&gt;&lt;div data-lake_diagram_content_editor_data=&quot;true&quot;&gt;&lt;div data-lake_diagram_content_editor_data=&quot;true&quot;&gt;生成HTTP节点证书&lt;/div&gt;&lt;/div&gt;&lt;/div&gt;&lt;/div&gt;&lt;/div&gt;&lt;/div&gt;&lt;/div&gt;&lt;/div&gt;&lt;/div&gt;&lt;/div&gt;" style="rounded=0;whiteSpace=wrap;html=1;fontFamily=小赖字体 sc;fillColor=#f8cecc;strokeColor=#b85450;" vertex="1" parent="1">
          <mxGeometry x="-6620" y="-1657" width="310" height="111" as="geometry" />
        </mxCell>
        <mxCell id="3dr3AcMasKzA3oTOAPOF-45" value="" style="edgeStyle=orthogonalEdgeStyle;rounded=0;orthogonalLoop=1;jettySize=auto;html=1;" edge="1" parent="1" source="3dr3AcMasKzA3oTOAPOF-46" target="3dr3AcMasKzA3oTOAPOF-48">
          <mxGeometry relative="1" as="geometry" />
        </mxCell>
        <mxCell id="3dr3AcMasKzA3oTOAPOF-46" value="&lt;div data-lake_diagram_content_editor_data=&quot;true&quot;&gt;&lt;div data-lake_diagram_content_editor_data=&quot;true&quot;&gt;&lt;div style=&quot;text-align:left;&quot;&gt;&lt;div data-lake_diagram_content_editor_data=&quot;true&quot;&gt;&lt;div style=&quot;text-align:center;&quot;&gt;&lt;div data-lake_diagram_content_editor_data=&quot;true&quot;&gt;&lt;div data-lake_diagram_content_editor_data=&quot;true&quot;&gt;&lt;div data-lake_diagram_content_editor_data=&quot;true&quot;&gt;&lt;div data-lake_diagram_content_editor_data=&quot;true&quot;&gt;&lt;div data-lake_diagram_content_editor_data=&quot;true&quot;&gt;&lt;div data-lake_diagram_content_editor_data=&quot;true&quot;&gt;&lt;div data-lake_diagram_content_editor_data=&quot;true&quot;&gt;&lt;div&gt;生成admin用户的密码&lt;/div&gt;&lt;div&gt;（原本就有）&lt;/div&gt;&lt;/div&gt;&lt;/div&gt;&lt;/div&gt;&lt;/div&gt;&lt;/div&gt;&lt;/div&gt;&lt;/div&gt;&lt;/div&gt;&lt;/div&gt;&lt;/div&gt;&lt;/div&gt;&lt;/div&gt;" style="rounded=0;whiteSpace=wrap;html=1;fontFamily=小赖字体 sc;fillColor=#f8cecc;strokeColor=#b85450;" vertex="1" parent="1">
          <mxGeometry x="-6620" y="-1466" width="310" height="116" as="geometry" />
        </mxCell>
        <mxCell id="3dr3AcMasKzA3oTOAPOF-47" value="" style="edgeStyle=orthogonalEdgeStyle;rounded=0;orthogonalLoop=1;jettySize=auto;html=1;" edge="1" parent="1" source="3dr3AcMasKzA3oTOAPOF-48" target="3dr3AcMasKzA3oTOAPOF-50">
          <mxGeometry relative="1" as="geometry" />
        </mxCell>
        <mxCell id="3dr3AcMasKzA3oTOAPOF-48" value="&lt;div data-lake_diagram_content_editor_data=&quot;true&quot;&gt;&lt;div data-lake_diagram_content_editor_data=&quot;true&quot;&gt;&lt;div style=&quot;text-align:left;&quot;&gt;&lt;div data-lake_diagram_content_editor_data=&quot;true&quot;&gt;&lt;div style=&quot;text-align:center;&quot;&gt;&lt;div data-lake_diagram_content_editor_data=&quot;true&quot;&gt;&lt;div data-lake_diagram_content_editor_data=&quot;true&quot;&gt;&lt;div data-lake_diagram_content_editor_data=&quot;true&quot;&gt;&lt;div data-lake_diagram_content_editor_data=&quot;true&quot;&gt;&lt;div data-lake_diagram_content_editor_data=&quot;true&quot;&gt;&lt;div data-lake_diagram_content_editor_data=&quot;true&quot;&gt;&lt;div data-lake_diagram_content_editor_data=&quot;true&quot;&gt;&lt;div data-lake_diagram_content_editor_data=&quot;true&quot;&gt;&lt;div&gt;安装Kibana/dashboards&lt;/div&gt;&lt;div&gt;（原本就有）&lt;/div&gt;&lt;/div&gt;&lt;/div&gt;&lt;/div&gt;&lt;/div&gt;&lt;/div&gt;&lt;/div&gt;&lt;/div&gt;&lt;/div&gt;&lt;/div&gt;&lt;/div&gt;&lt;/div&gt;&lt;/div&gt;&lt;/div&gt;" style="rounded=0;whiteSpace=wrap;html=1;fontFamily=小赖字体 sc;fillColor=#f8cecc;strokeColor=#b85450;" vertex="1" parent="1">
          <mxGeometry x="-6620" y="-1270" width="310" height="116" as="geometry" />
        </mxCell>
        <mxCell id="3dr3AcMasKzA3oTOAPOF-49" value="" style="edgeStyle=orthogonalEdgeStyle;rounded=0;orthogonalLoop=1;jettySize=auto;html=1;" edge="1" parent="1" source="3dr3AcMasKzA3oTOAPOF-50" target="3dr3AcMasKzA3oTOAPOF-52">
          <mxGeometry relative="1" as="geometry" />
        </mxCell>
        <mxCell id="3dr3AcMasKzA3oTOAPOF-50" value="&lt;div data-lake_diagram_content_editor_data=&quot;true&quot;&gt;&lt;div data-lake_diagram_content_editor_data=&quot;true&quot;&gt;&lt;div style=&quot;text-align:left;&quot;&gt;&lt;div data-lake_diagram_content_editor_data=&quot;true&quot;&gt;&lt;div style=&quot;text-align:center;&quot;&gt;&lt;div data-lake_diagram_content_editor_data=&quot;true&quot;&gt;&lt;div data-lake_diagram_content_editor_data=&quot;true&quot;&gt;&lt;div data-lake_diagram_content_editor_data=&quot;true&quot;&gt;&lt;div data-lake_diagram_content_editor_data=&quot;true&quot;&gt;&lt;div data-lake_diagram_content_editor_data=&quot;true&quot;&gt;&lt;div data-lake_diagram_content_editor_data=&quot;true&quot;&gt;&lt;div data-lake_diagram_content_editor_data=&quot;true&quot;&gt;&lt;div data-lake_diagram_content_editor_data=&quot;true&quot;&gt;&lt;div data-lake_diagram_content_editor_data=&quot;true&quot;&gt;拷贝root-ca-https.pem 、root-ca-key-https.pem到Kibana节点上&lt;/div&gt;&lt;/div&gt;&lt;/div&gt;&lt;/div&gt;&lt;/div&gt;&lt;/div&gt;&lt;/div&gt;&lt;/div&gt;&lt;/div&gt;&lt;/div&gt;&lt;/div&gt;&lt;/div&gt;&lt;/div&gt;&lt;/div&gt;" style="rounded=0;whiteSpace=wrap;html=1;fontFamily=小赖字体 sc;fillColor=#f8cecc;strokeColor=#b85450;" vertex="1" parent="1">
          <mxGeometry x="-6620" y="-1074" width="310" height="116" as="geometry" />
        </mxCell>
        <mxCell id="3dr3AcMasKzA3oTOAPOF-51" value="" style="edgeStyle=orthogonalEdgeStyle;rounded=0;orthogonalLoop=1;jettySize=auto;html=1;" edge="1" parent="1" source="3dr3AcMasKzA3oTOAPOF-52" target="3dr3AcMasKzA3oTOAPOF-54">
          <mxGeometry relative="1" as="geometry" />
        </mxCell>
        <mxCell id="3dr3AcMasKzA3oTOAPOF-52" value="&lt;div data-lake_diagram_content_editor_data=&quot;true&quot;&gt;&lt;div data-lake_diagram_content_editor_data=&quot;true&quot;&gt;&lt;div style=&quot;text-align:left;&quot;&gt;&lt;div data-lake_diagram_content_editor_data=&quot;true&quot;&gt;&lt;div style=&quot;text-align:center;&quot;&gt;&lt;div data-lake_diagram_content_editor_data=&quot;true&quot;&gt;&lt;div data-lake_diagram_content_editor_data=&quot;true&quot;&gt;&lt;div data-lake_diagram_content_editor_data=&quot;true&quot;&gt;&lt;div data-lake_diagram_content_editor_data=&quot;true&quot;&gt;&lt;div data-lake_diagram_content_editor_data=&quot;true&quot;&gt;&lt;div data-lake_diagram_content_editor_data=&quot;true&quot;&gt;&lt;div data-lake_diagram_content_editor_data=&quot;true&quot;&gt;&lt;div data-lake_diagram_content_editor_data=&quot;true&quot;&gt;&lt;div data-lake_diagram_content_editor_data=&quot;true&quot;&gt;&lt;div data-lake_diagram_content_editor_data=&quot;true&quot;&gt;生成Kibana节点证书&lt;/div&gt;&lt;/div&gt;&lt;/div&gt;&lt;/div&gt;&lt;/div&gt;&lt;/div&gt;&lt;/div&gt;&lt;/div&gt;&lt;/div&gt;&lt;/div&gt;&lt;/div&gt;&lt;/div&gt;&lt;/div&gt;&lt;/div&gt;&lt;/div&gt;" style="rounded=0;whiteSpace=wrap;html=1;fontFamily=小赖字体 sc;fillColor=#f8cecc;strokeColor=#b85450;" vertex="1" parent="1">
          <mxGeometry x="-6620" y="-878" width="310" height="116" as="geometry" />
        </mxCell>
        <mxCell id="3dr3AcMasKzA3oTOAPOF-53" value="" style="edgeStyle=orthogonalEdgeStyle;rounded=0;orthogonalLoop=1;jettySize=auto;html=1;" edge="1" parent="1" source="3dr3AcMasKzA3oTOAPOF-54" target="3dr3AcMasKzA3oTOAPOF-58">
          <mxGeometry relative="1" as="geometry" />
        </mxCell>
        <mxCell id="3dr3AcMasKzA3oTOAPOF-54" value="&lt;div data-lake_diagram_content_editor_data=&quot;true&quot;&gt;&lt;div data-lake_diagram_content_editor_data=&quot;true&quot;&gt;&lt;div style=&quot;text-align:left;&quot;&gt;&lt;div data-lake_diagram_content_editor_data=&quot;true&quot;&gt;&lt;div style=&quot;text-align:center;&quot;&gt;&lt;div data-lake_diagram_content_editor_data=&quot;true&quot;&gt;&lt;div data-lake_diagram_content_editor_data=&quot;true&quot;&gt;&lt;div data-lake_diagram_content_editor_data=&quot;true&quot;&gt;&lt;div data-lake_diagram_content_editor_data=&quot;true&quot;&gt;&lt;div data-lake_diagram_content_editor_data=&quot;true&quot;&gt;&lt;div data-lake_diagram_content_editor_data=&quot;true&quot;&gt;&lt;div data-lake_diagram_content_editor_data=&quot;true&quot;&gt;&lt;div data-lake_diagram_content_editor_data=&quot;true&quot;&gt;&lt;div data-lake_diagram_content_editor_data=&quot;true&quot;&gt;&lt;div data-lake_diagram_content_editor_data=&quot;true&quot;&gt;&lt;div data-lake_diagram_content_editor_data=&quot;true&quot;&gt;配置同步&lt;/div&gt;&lt;/div&gt;&lt;/div&gt;&lt;/div&gt;&lt;/div&gt;&lt;/div&gt;&lt;/div&gt;&lt;/div&gt;&lt;/div&gt;&lt;/div&gt;&lt;/div&gt;&lt;/div&gt;&lt;/div&gt;&lt;/div&gt;&lt;/div&gt;&lt;/div&gt;" style="rounded=0;whiteSpace=wrap;html=1;fontFamily=小赖字体 sc;fillColor=#f8cecc;strokeColor=#b85450;" vertex="1" parent="1">
          <mxGeometry x="-6620" y="-682" width="310" height="116" as="geometry" />
        </mxCell>
        <mxCell id="3dr3AcMasKzA3oTOAPOF-55" value="" style="edgeStyle=orthogonalEdgeStyle;rounded=0;orthogonalLoop=1;jettySize=auto;html=1;" edge="1" parent="1" source="3dr3AcMasKzA3oTOAPOF-58" target="3dr3AcMasKzA3oTOAPOF-59">
          <mxGeometry relative="1" as="geometry" />
        </mxCell>
        <mxCell id="3dr3AcMasKzA3oTOAPOF-56" value="" style="edgeStyle=orthogonalEdgeStyle;rounded=0;orthogonalLoop=1;jettySize=auto;html=1;" edge="1" parent="1" source="3dr3AcMasKzA3oTOAPOF-58" target="3dr3AcMasKzA3oTOAPOF-143">
          <mxGeometry relative="1" as="geometry" />
        </mxCell>
        <mxCell id="3dr3AcMasKzA3oTOAPOF-57" value="新增逻辑" style="edgeLabel;html=1;align=center;verticalAlign=middle;resizable=0;points=[];" vertex="1" connectable="0" parent="3dr3AcMasKzA3oTOAPOF-56">
          <mxGeometry x="-0.0109" y="-2" relative="1" as="geometry">
            <mxPoint as="offset" />
          </mxGeometry>
        </mxCell>
        <mxCell id="3dr3AcMasKzA3oTOAPOF-58" value="&lt;div data-lake_diagram_content_editor_data=&quot;true&quot;&gt;&lt;div data-lake_diagram_content_editor_data=&quot;true&quot;&gt;&lt;div style=&quot;text-align:left;&quot;&gt;&lt;div data-lake_diagram_content_editor_data=&quot;true&quot;&gt;&lt;div style=&quot;text-align:center;&quot;&gt;&lt;div data-lake_diagram_content_editor_data=&quot;true&quot;&gt;&lt;div data-lake_diagram_content_editor_data=&quot;true&quot;&gt;&lt;div data-lake_diagram_content_editor_data=&quot;true&quot;&gt;&lt;div data-lake_diagram_content_editor_data=&quot;true&quot;&gt;&lt;div data-lake_diagram_content_editor_data=&quot;true&quot;&gt;&lt;div data-lake_diagram_content_editor_data=&quot;true&quot;&gt;&lt;div data-lake_diagram_content_editor_data=&quot;true&quot;&gt;&lt;div data-lake_diagram_content_editor_data=&quot;true&quot;&gt;&lt;div data-lake_diagram_content_editor_data=&quot;true&quot;&gt;&lt;div data-lake_diagram_content_editor_data=&quot;true&quot;&gt;&lt;div data-lake_diagram_content_editor_data=&quot;true&quot;&gt;&lt;div data-lake_diagram_content_editor_data=&quot;true&quot;&gt;增加进程监控配置&lt;/div&gt;&lt;/div&gt;&lt;/div&gt;&lt;/div&gt;&lt;/div&gt;&lt;/div&gt;&lt;/div&gt;&lt;/div&gt;&lt;/div&gt;&lt;/div&gt;&lt;/div&gt;&lt;/div&gt;&lt;/div&gt;&lt;/div&gt;&lt;/div&gt;&lt;/div&gt;&lt;/div&gt;" style="rounded=0;whiteSpace=wrap;html=1;fontFamily=小赖字体 sc;fillColor=#f8cecc;strokeColor=#b85450;" vertex="1" parent="1">
          <mxGeometry x="-6620" y="-486" width="310" height="116" as="geometry" />
        </mxCell>
        <mxCell id="3dr3AcMasKzA3oTOAPOF-59" value="&lt;div data-lake_diagram_content_editor_data=&quot;true&quot;&gt;&lt;div data-lake_diagram_content_editor_data=&quot;true&quot;&gt;&lt;div style=&quot;text-align:left;&quot;&gt;&lt;div data-lake_diagram_content_editor_data=&quot;true&quot;&gt;&lt;div style=&quot;text-align:center;&quot;&gt;&lt;div data-lake_diagram_content_editor_data=&quot;true&quot;&gt;&lt;div data-lake_diagram_content_editor_data=&quot;true&quot;&gt;&lt;div data-lake_diagram_content_editor_data=&quot;true&quot;&gt;&lt;div data-lake_diagram_content_editor_data=&quot;true&quot;&gt;&lt;div data-lake_diagram_content_editor_data=&quot;true&quot;&gt;&lt;div data-lake_diagram_content_editor_data=&quot;true&quot;&gt;&lt;div data-lake_diagram_content_editor_data=&quot;true&quot;&gt;&lt;div data-lake_diagram_content_editor_data=&quot;true&quot;&gt;&lt;div data-lake_diagram_content_editor_data=&quot;true&quot;&gt;&lt;div data-lake_diagram_content_editor_data=&quot;true&quot;&gt;&lt;div data-lake_diagram_content_editor_data=&quot;true&quot;&gt;&lt;div data-lake_diagram_content_editor_data=&quot;true&quot;&gt;&lt;div data-lake_diagram_content_editor_data=&quot;true&quot;&gt;&lt;div&gt;启动集群&lt;/div&gt;&lt;div&gt;（部署时，默认开启）&lt;/div&gt;&lt;/div&gt;&lt;/div&gt;&lt;/div&gt;&lt;/div&gt;&lt;/div&gt;&lt;/div&gt;&lt;/div&gt;&lt;/div&gt;&lt;/div&gt;&lt;/div&gt;&lt;/div&gt;&lt;/div&gt;&lt;/div&gt;&lt;/div&gt;&lt;/div&gt;&lt;/div&gt;&lt;/div&gt;&lt;/div&gt;" style="rounded=0;whiteSpace=wrap;html=1;fontFamily=小赖字体 sc;fillColor=#f8cecc;strokeColor=#b85450;" vertex="1" parent="1">
          <mxGeometry x="-6620" y="-290" width="310" height="116" as="geometry" />
        </mxCell>
        <mxCell id="3dr3AcMasKzA3oTOAPOF-60" value="ES/OS部署的playbook" style="swimlane;whiteSpace=wrap;html=1;fontFamily=小赖字体 sc;" vertex="1" parent="1">
          <mxGeometry x="-7040" y="-2650" width="1240" height="1340" as="geometry" />
        </mxCell>
        <mxCell id="3dr3AcMasKzA3oTOAPOF-61" value="" style="shape=waypoint;sketch=0;size=6;pointerEvents=1;points=[];fillColor=#e1d5e7;resizable=0;rotatable=0;perimeter=centerPerimeter;snapToPoint=1;fontFamily=小赖字体 sc;strokeColor=#9673a6;rounded=0;" vertex="1" parent="3dr3AcMasKzA3oTOAPOF-60">
          <mxGeometry x="600" y="-10" width="20" height="20" as="geometry" />
        </mxCell>
        <mxCell id="3dr3AcMasKzA3oTOAPOF-62" value="Kibana/dashboard部署的playbook" style="swimlane;whiteSpace=wrap;html=1;fontFamily=小赖字体 sc;" vertex="1" parent="1">
          <mxGeometry x="-7040" y="-1300" width="1240" height="580" as="geometry" />
        </mxCell>
        <mxCell id="3dr3AcMasKzA3oTOAPOF-63" value="" style="shape=waypoint;sketch=0;size=6;pointerEvents=1;points=[];fillColor=#e1d5e7;resizable=0;rotatable=0;perimeter=centerPerimeter;snapToPoint=1;fontFamily=小赖字体 sc;strokeColor=#9673a6;rounded=0;" vertex="1" parent="3dr3AcMasKzA3oTOAPOF-62">
          <mxGeometry x="600" y="-10" width="20" height="20" as="geometry" />
        </mxCell>
        <mxCell id="3dr3AcMasKzA3oTOAPOF-64" value="&lt;font color=&quot;#df2a3f&quot;&gt;流水线添加参数，playbook中校验，符合条件才会执行这个playbook&lt;br&gt;when: PLATFORM is defined and PLATFORM == &#39;cloud_search&#39;&lt;br&gt;&lt;/font&gt;&lt;div data-lake_diagram_content_editor_data=&quot;true&quot;&gt;&lt;div data-lake_diagram_content_editor_data=&quot;true&quot;&gt;&lt;/div&gt;&lt;/div&gt;" style="whiteSpace=wrap;html=1;shape=mxgraph.basic.document;fontFamily=小赖字体 sc;align=left;fillColor=#fff2cc;strokeColor=#d6b656;" vertex="1" parent="3dr3AcMasKzA3oTOAPOF-62">
          <mxGeometry x="780" y="130" width="410" height="50" as="geometry" />
        </mxCell>
        <mxCell id="3dr3AcMasKzA3oTOAPOF-65" value="" style="edgeStyle=orthogonalEdgeStyle;rounded=0;orthogonalLoop=1;jettySize=auto;html=1;entryX=0.5;entryY=0;entryDx=0;entryDy=0;" edge="1" parent="1" source="3dr3AcMasKzA3oTOAPOF-66" target="3dr3AcMasKzA3oTOAPOF-88">
          <mxGeometry relative="1" as="geometry" />
        </mxCell>
        <mxCell id="3dr3AcMasKzA3oTOAPOF-66" value="&lt;div data-lake_diagram_content_editor_data=&quot;true&quot;&gt;&lt;div data-lake_diagram_content_editor_data=&quot;true&quot;&gt;&lt;div data-lake_diagram_content_editor_data=&quot;true&quot;&gt;【Manager】改造 扩容接口&lt;/div&gt;&lt;/div&gt;&lt;/div&gt;" style="rounded=0;whiteSpace=wrap;html=1;fontFamily=小赖字体 sc;fillColor=#d5e8d4;strokeColor=#82b366;" vertex="1" parent="1">
          <mxGeometry x="-5110" y="-3560" width="120" height="60" as="geometry" />
        </mxCell>
        <mxCell id="3dr3AcMasKzA3oTOAPOF-67" value="" style="edgeStyle=orthogonalEdgeStyle;rounded=0;orthogonalLoop=1;jettySize=auto;html=1;" edge="1" parent="1" source="3dr3AcMasKzA3oTOAPOF-85" target="3dr3AcMasKzA3oTOAPOF-69">
          <mxGeometry relative="1" as="geometry" />
        </mxCell>
        <mxCell id="3dr3AcMasKzA3oTOAPOF-68" value="" style="edgeStyle=orthogonalEdgeStyle;rounded=0;orthogonalLoop=1;jettySize=auto;html=1;" edge="1" parent="1" source="3dr3AcMasKzA3oTOAPOF-69" target="3dr3AcMasKzA3oTOAPOF-71">
          <mxGeometry relative="1" as="geometry" />
        </mxCell>
        <mxCell id="3dr3AcMasKzA3oTOAPOF-69" value="&lt;div data-lake_diagram_content_editor_data=&quot;true&quot;&gt;&lt;div data-lake_diagram_content_editor_data=&quot;true&quot;&gt;&lt;div data-lake_diagram_content_editor_data=&quot;true&quot;&gt;&lt;div data-lake_diagram_content_editor_data=&quot;true&quot;&gt;&lt;div data-lake_diagram_content_editor_data=&quot;true&quot;&gt;&lt;div data-lake_diagram_content_editor_data=&quot;true&quot;&gt;&lt;div data-lake_diagram_content_editor_data=&quot;true&quot;&gt;&lt;div data-lake_diagram_content_editor_data=&quot;true&quot;&gt;&lt;div data-lake_diagram_content_editor_data=&quot;true&quot;&gt;配置同步&lt;/div&gt;&lt;/div&gt;&lt;/div&gt;&lt;/div&gt;&lt;/div&gt;&lt;/div&gt;&lt;/div&gt;&lt;/div&gt;&lt;/div&gt;" style="rounded=0;whiteSpace=wrap;html=1;fontFamily=小赖字体 sc;fillColor=#f8cecc;strokeColor=#b85450;" vertex="1" parent="1">
          <mxGeometry x="-5110" y="-2820" width="120" height="60" as="geometry" />
        </mxCell>
        <mxCell id="3dr3AcMasKzA3oTOAPOF-70" value="" style="edgeStyle=orthogonalEdgeStyle;rounded=0;orthogonalLoop=1;jettySize=auto;html=1;" edge="1" parent="1" source="3dr3AcMasKzA3oTOAPOF-71" target="3dr3AcMasKzA3oTOAPOF-73">
          <mxGeometry relative="1" as="geometry" />
        </mxCell>
        <mxCell id="3dr3AcMasKzA3oTOAPOF-71" value="&lt;div data-lake_diagram_content_editor_data=&quot;true&quot;&gt;&lt;div data-lake_diagram_content_editor_data=&quot;true&quot;&gt;&lt;div data-lake_diagram_content_editor_data=&quot;true&quot;&gt;&lt;div data-lake_diagram_content_editor_data=&quot;true&quot;&gt;&lt;div data-lake_diagram_content_editor_data=&quot;true&quot;&gt;&lt;div data-lake_diagram_content_editor_data=&quot;true&quot;&gt;&lt;div data-lake_diagram_content_editor_data=&quot;true&quot;&gt;&lt;div data-lake_diagram_content_editor_data=&quot;true&quot;&gt;&lt;div data-lake_diagram_content_editor_data=&quot;true&quot;&gt;&lt;div data-lake_diagram_content_editor_data=&quot;true&quot;&gt;增加进程监控配置&lt;/div&gt;&lt;/div&gt;&lt;/div&gt;&lt;/div&gt;&lt;/div&gt;&lt;/div&gt;&lt;/div&gt;&lt;/div&gt;&lt;/div&gt;&lt;/div&gt;" style="rounded=0;whiteSpace=wrap;html=1;fontFamily=小赖字体 sc;fillColor=#f8cecc;strokeColor=#b85450;" vertex="1" parent="1">
          <mxGeometry x="-5110" y="-2680" width="120" height="60" as="geometry" />
        </mxCell>
        <mxCell id="3dr3AcMasKzA3oTOAPOF-72" value="" style="edgeStyle=orthogonalEdgeStyle;rounded=0;orthogonalLoop=1;jettySize=auto;html=1;" edge="1" parent="1" source="3dr3AcMasKzA3oTOAPOF-73" target="3dr3AcMasKzA3oTOAPOF-75">
          <mxGeometry relative="1" as="geometry" />
        </mxCell>
        <mxCell id="3dr3AcMasKzA3oTOAPOF-73" value="&lt;div data-lake_diagram_content_editor_data=&quot;true&quot;&gt;&lt;div data-lake_diagram_content_editor_data=&quot;true&quot;&gt;&lt;div data-lake_diagram_content_editor_data=&quot;true&quot;&gt;&lt;div data-lake_diagram_content_editor_data=&quot;true&quot;&gt;&lt;div data-lake_diagram_content_editor_data=&quot;true&quot;&gt;&lt;div data-lake_diagram_content_editor_data=&quot;true&quot;&gt;&lt;div data-lake_diagram_content_editor_data=&quot;true&quot;&gt;&lt;div data-lake_diagram_content_editor_data=&quot;true&quot;&gt;&lt;div data-lake_diagram_content_editor_data=&quot;true&quot;&gt;&lt;div data-lake_diagram_content_editor_data=&quot;true&quot;&gt;&lt;div data-lake_diagram_content_editor_data=&quot;true&quot;&gt;批量安装自定义插件&lt;/div&gt;&lt;/div&gt;&lt;/div&gt;&lt;/div&gt;&lt;/div&gt;&lt;/div&gt;&lt;/div&gt;&lt;/div&gt;&lt;/div&gt;&lt;/div&gt;&lt;/div&gt;" style="rounded=0;whiteSpace=wrap;html=1;fontFamily=小赖字体 sc;fillColor=#f8cecc;strokeColor=#b85450;" vertex="1" parent="1">
          <mxGeometry x="-5110" y="-2540" width="120" height="60" as="geometry" />
        </mxCell>
        <mxCell id="3dr3AcMasKzA3oTOAPOF-74" value="" style="edgeStyle=orthogonalEdgeStyle;rounded=0;orthogonalLoop=1;jettySize=auto;html=1;" edge="1" parent="1" source="3dr3AcMasKzA3oTOAPOF-75" target="3dr3AcMasKzA3oTOAPOF-77">
          <mxGeometry relative="1" as="geometry" />
        </mxCell>
        <mxCell id="3dr3AcMasKzA3oTOAPOF-75" value="&lt;div data-lake_diagram_content_editor_data=&quot;true&quot;&gt;&lt;div data-lake_diagram_content_editor_data=&quot;true&quot;&gt;&lt;div data-lake_diagram_content_editor_data=&quot;true&quot;&gt;&lt;div data-lake_diagram_content_editor_data=&quot;true&quot;&gt;&lt;div data-lake_diagram_content_editor_data=&quot;true&quot;&gt;&lt;div data-lake_diagram_content_editor_data=&quot;true&quot;&gt;&lt;div data-lake_diagram_content_editor_data=&quot;true&quot;&gt;&lt;div data-lake_diagram_content_editor_data=&quot;true&quot;&gt;&lt;div data-lake_diagram_content_editor_data=&quot;true&quot;&gt;&lt;div data-lake_diagram_content_editor_data=&quot;true&quot;&gt;&lt;div data-lake_diagram_content_editor_data=&quot;true&quot;&gt;&lt;div data-lake_diagram_content_editor_data=&quot;true&quot;&gt;设置集群备份AKSK&lt;/div&gt;&lt;/div&gt;&lt;/div&gt;&lt;/div&gt;&lt;/div&gt;&lt;/div&gt;&lt;/div&gt;&lt;/div&gt;&lt;/div&gt;&lt;/div&gt;&lt;/div&gt;&lt;/div&gt;" style="rounded=0;whiteSpace=wrap;html=1;fontFamily=小赖字体 sc;fillColor=#f8cecc;strokeColor=#b85450;" vertex="1" parent="1">
          <mxGeometry x="-5110" y="-2400" width="120" height="60" as="geometry" />
        </mxCell>
        <mxCell id="3dr3AcMasKzA3oTOAPOF-76" value="" style="edgeStyle=orthogonalEdgeStyle;rounded=0;orthogonalLoop=1;jettySize=auto;html=1;" edge="1" parent="1" source="3dr3AcMasKzA3oTOAPOF-77" target="3dr3AcMasKzA3oTOAPOF-78">
          <mxGeometry relative="1" as="geometry" />
        </mxCell>
        <mxCell id="3dr3AcMasKzA3oTOAPOF-77" value="&lt;div data-lake_diagram_content_editor_data=&quot;true&quot;&gt;&lt;div data-lake_diagram_content_editor_data=&quot;true&quot;&gt;&lt;div data-lake_diagram_content_editor_data=&quot;true&quot;&gt;&lt;div data-lake_diagram_content_editor_data=&quot;true&quot;&gt;&lt;div data-lake_diagram_content_editor_data=&quot;true&quot;&gt;&lt;div data-lake_diagram_content_editor_data=&quot;true&quot;&gt;&lt;div data-lake_diagram_content_editor_data=&quot;true&quot;&gt;&lt;div data-lake_diagram_content_editor_data=&quot;true&quot;&gt;&lt;div data-lake_diagram_content_editor_data=&quot;true&quot;&gt;&lt;div data-lake_diagram_content_editor_data=&quot;true&quot;&gt;&lt;div data-lake_diagram_content_editor_data=&quot;true&quot;&gt;&lt;div data-lake_diagram_content_editor_data=&quot;true&quot;&gt;&lt;div data-lake_diagram_content_editor_data=&quot;true&quot;&gt;服务启动&lt;/div&gt;&lt;/div&gt;&lt;/div&gt;&lt;/div&gt;&lt;/div&gt;&lt;/div&gt;&lt;/div&gt;&lt;/div&gt;&lt;/div&gt;&lt;/div&gt;&lt;/div&gt;&lt;/div&gt;&lt;/div&gt;" style="rounded=0;whiteSpace=wrap;html=1;fontFamily=小赖字体 sc;fillColor=#f8cecc;strokeColor=#b85450;" vertex="1" parent="1">
          <mxGeometry x="-5110" y="-2260" width="120" height="60" as="geometry" />
        </mxCell>
        <mxCell id="3dr3AcMasKzA3oTOAPOF-78" value="&lt;div data-lake_diagram_content_editor_data=&quot;true&quot;&gt;&lt;div data-lake_diagram_content_editor_data=&quot;true&quot;&gt;&lt;div data-lake_diagram_content_editor_data=&quot;true&quot;&gt;&lt;div data-lake_diagram_content_editor_data=&quot;true&quot;&gt;&lt;div data-lake_diagram_content_editor_data=&quot;true&quot;&gt;&lt;div data-lake_diagram_content_editor_data=&quot;true&quot;&gt;&lt;div data-lake_diagram_content_editor_data=&quot;true&quot;&gt;&lt;div data-lake_diagram_content_editor_data=&quot;true&quot;&gt;&lt;div data-lake_diagram_content_editor_data=&quot;true&quot;&gt;&lt;div data-lake_diagram_content_editor_data=&quot;true&quot;&gt;&lt;div data-lake_diagram_content_editor_data=&quot;true&quot;&gt;&lt;div data-lake_diagram_content_editor_data=&quot;true&quot;&gt;&lt;div data-lake_diagram_content_editor_data=&quot;true&quot;&gt;&lt;div data-lake_diagram_content_editor_data=&quot;true&quot;&gt;校验扩容节点是否加入集群&lt;/div&gt;&lt;/div&gt;&lt;/div&gt;&lt;/div&gt;&lt;/div&gt;&lt;/div&gt;&lt;/div&gt;&lt;/div&gt;&lt;/div&gt;&lt;/div&gt;&lt;/div&gt;&lt;/div&gt;&lt;/div&gt;&lt;/div&gt;" style="rounded=0;whiteSpace=wrap;html=1;fontFamily=小赖字体 sc;fillColor=#f8cecc;strokeColor=#b85450;" vertex="1" parent="1">
          <mxGeometry x="-5110" y="-2120" width="120" height="60" as="geometry" />
        </mxCell>
        <mxCell id="3dr3AcMasKzA3oTOAPOF-79" value="ES/OS部需要改造的点" style="swimlane;whiteSpace=wrap;html=1;fontFamily=小赖字体 sc;" vertex="1" parent="1">
          <mxGeometry x="-5200" y="-3480" width="320" height="610" as="geometry" />
        </mxCell>
        <mxCell id="3dr3AcMasKzA3oTOAPOF-80" value="&lt;div data-lake_diagram_content_editor_data=&quot;true&quot;&gt;&lt;div data-lake_diagram_content_editor_data=&quot;true&quot;&gt;&lt;div data-lake_diagram_content_editor_data=&quot;true&quot;&gt;&lt;div data-lake_diagram_content_editor_data=&quot;true&quot;&gt;&lt;div data-lake_diagram_content_editor_data=&quot;true&quot;&gt;将上面7个证书拷贝到每个扩容节点&lt;/div&gt;&lt;/div&gt;&lt;/div&gt;&lt;/div&gt;&lt;/div&gt;" style="rounded=0;whiteSpace=wrap;html=1;fontFamily=小赖字体 sc;fillColor=#f8cecc;strokeColor=#b85450;" vertex="1" parent="3dr3AcMasKzA3oTOAPOF-79">
          <mxGeometry x="90" y="150" width="120" height="60" as="geometry" />
        </mxCell>
        <mxCell id="3dr3AcMasKzA3oTOAPOF-81" value="&lt;div data-lake_diagram_content_editor_data=&quot;true&quot;&gt;&lt;div data-lake_diagram_content_editor_data=&quot;true&quot;&gt;&lt;div data-lake_diagram_content_editor_data=&quot;true&quot;&gt;&lt;div data-lake_diagram_content_editor_data=&quot;true&quot;&gt;&lt;div data-lake_diagram_content_editor_data=&quot;true&quot;&gt;&lt;div data-lake_diagram_content_editor_data=&quot;true&quot;&gt;&lt;div&gt;生成TCP节点证书&lt;/div&gt;&lt;div&gt;（原本就有）&lt;/div&gt;&lt;/div&gt;&lt;/div&gt;&lt;/div&gt;&lt;/div&gt;&lt;/div&gt;&lt;/div&gt;" style="rounded=0;whiteSpace=wrap;html=1;fontFamily=小赖字体 sc;fillColor=#f8cecc;strokeColor=#b85450;" vertex="1" parent="3dr3AcMasKzA3oTOAPOF-79">
          <mxGeometry x="90" y="260" width="120" height="60" as="geometry" />
        </mxCell>
        <mxCell id="3dr3AcMasKzA3oTOAPOF-82" value="" style="edgeStyle=orthogonalEdgeStyle;rounded=0;orthogonalLoop=1;jettySize=auto;html=1;" edge="1" parent="3dr3AcMasKzA3oTOAPOF-79" source="3dr3AcMasKzA3oTOAPOF-80" target="3dr3AcMasKzA3oTOAPOF-81">
          <mxGeometry relative="1" as="geometry" />
        </mxCell>
        <mxCell id="3dr3AcMasKzA3oTOAPOF-83" value="&lt;div data-lake_diagram_content_editor_data=&quot;true&quot;&gt;&lt;div data-lake_diagram_content_editor_data=&quot;true&quot;&gt;&lt;div data-lake_diagram_content_editor_data=&quot;true&quot;&gt;&lt;div data-lake_diagram_content_editor_data=&quot;true&quot;&gt;&lt;div data-lake_diagram_content_editor_data=&quot;true&quot;&gt;&lt;div data-lake_diagram_content_editor_data=&quot;true&quot;&gt;&lt;div data-lake_diagram_content_editor_data=&quot;true&quot;&gt;生成HTTP节点证书&lt;/div&gt;&lt;/div&gt;&lt;/div&gt;&lt;/div&gt;&lt;/div&gt;&lt;/div&gt;&lt;/div&gt;" style="rounded=0;whiteSpace=wrap;html=1;fontFamily=小赖字体 sc;fillColor=#f8cecc;strokeColor=#b85450;" vertex="1" parent="3dr3AcMasKzA3oTOAPOF-79">
          <mxGeometry x="90" y="380" width="120" height="60" as="geometry" />
        </mxCell>
        <mxCell id="3dr3AcMasKzA3oTOAPOF-84" value="" style="edgeStyle=orthogonalEdgeStyle;rounded=0;orthogonalLoop=1;jettySize=auto;html=1;" edge="1" parent="3dr3AcMasKzA3oTOAPOF-79" source="3dr3AcMasKzA3oTOAPOF-81" target="3dr3AcMasKzA3oTOAPOF-83">
          <mxGeometry relative="1" as="geometry" />
        </mxCell>
        <mxCell id="3dr3AcMasKzA3oTOAPOF-85" value="&lt;div data-lake_diagram_content_editor_data=&quot;true&quot;&gt;&lt;div data-lake_diagram_content_editor_data=&quot;true&quot;&gt;&lt;div data-lake_diagram_content_editor_data=&quot;true&quot;&gt;&lt;div data-lake_diagram_content_editor_data=&quot;true&quot;&gt;&lt;div data-lake_diagram_content_editor_data=&quot;true&quot;&gt;&lt;div data-lake_diagram_content_editor_data=&quot;true&quot;&gt;&lt;div data-lake_diagram_content_editor_data=&quot;true&quot;&gt;&lt;div data-lake_diagram_content_editor_data=&quot;true&quot;&gt;&lt;div&gt;生成admin用户的密码&lt;/div&gt;&lt;div&gt;（原本就有）&lt;/div&gt;&lt;/div&gt;&lt;/div&gt;&lt;/div&gt;&lt;/div&gt;&lt;/div&gt;&lt;/div&gt;&lt;/div&gt;&lt;/div&gt;" style="rounded=0;whiteSpace=wrap;html=1;fontFamily=小赖字体 sc;fillColor=#f8cecc;strokeColor=#b85450;" vertex="1" parent="3dr3AcMasKzA3oTOAPOF-79">
          <mxGeometry x="90" y="480" width="120" height="60" as="geometry" />
        </mxCell>
        <mxCell id="3dr3AcMasKzA3oTOAPOF-86" value="" style="edgeStyle=orthogonalEdgeStyle;rounded=0;orthogonalLoop=1;jettySize=auto;html=1;" edge="1" parent="3dr3AcMasKzA3oTOAPOF-79" source="3dr3AcMasKzA3oTOAPOF-83" target="3dr3AcMasKzA3oTOAPOF-85">
          <mxGeometry relative="1" as="geometry" />
        </mxCell>
        <mxCell id="3dr3AcMasKzA3oTOAPOF-87" style="edgeStyle=orthogonalEdgeStyle;rounded=0;orthogonalLoop=1;jettySize=auto;html=1;entryX=0.5;entryY=0;entryDx=0;entryDy=0;" edge="1" parent="3dr3AcMasKzA3oTOAPOF-79" source="3dr3AcMasKzA3oTOAPOF-88" target="3dr3AcMasKzA3oTOAPOF-80">
          <mxGeometry relative="1" as="geometry">
            <mxPoint x="150" y="140" as="targetPoint" />
          </mxGeometry>
        </mxCell>
        <mxCell id="3dr3AcMasKzA3oTOAPOF-88" value="&lt;div style=&quot;border-color: var(--border-color);&quot;&gt;安装ES/OS&lt;/div&gt;&lt;div style=&quot;border-color: var(--border-color);&quot;&gt;（原本就有）&lt;/div&gt;&lt;div data-lake_diagram_content_editor_data=&quot;true&quot;&gt;&lt;div data-lake_diagram_content_editor_data=&quot;true&quot;&gt;&lt;div data-lake_diagram_content_editor_data=&quot;true&quot;&gt;&lt;div data-lake_diagram_content_editor_data=&quot;true&quot;&gt;&lt;div data-lake_diagram_content_editor_data=&quot;true&quot;&gt;&lt;/div&gt;&lt;/div&gt;&lt;/div&gt;&lt;/div&gt;&lt;/div&gt;" style="rounded=0;whiteSpace=wrap;html=1;fontFamily=小赖字体 sc;fillColor=#f8cecc;strokeColor=#b85450;" vertex="1" parent="3dr3AcMasKzA3oTOAPOF-79">
          <mxGeometry x="90" y="50" width="120" height="60" as="geometry" />
        </mxCell>
        <mxCell id="3dr3AcMasKzA3oTOAPOF-89" value="原本就有" style="swimlane;whiteSpace=wrap;html=1;fontFamily=小赖字体 sc;" vertex="1" parent="1">
          <mxGeometry x="-5200" y="-2850" width="320" height="800" as="geometry" />
        </mxCell>
        <mxCell id="3dr3AcMasKzA3oTOAPOF-90" value="" style="edgeStyle=orthogonalEdgeStyle;rounded=0;orthogonalLoop=1;jettySize=auto;html=1;" edge="1" parent="1" source="3dr3AcMasKzA3oTOAPOF-91" target="3dr3AcMasKzA3oTOAPOF-117">
          <mxGeometry relative="1" as="geometry" />
        </mxCell>
        <mxCell id="3dr3AcMasKzA3oTOAPOF-91" value="&lt;div data-lake_diagram_content_editor_data=&quot;true&quot;&gt;【Manager】新增 下载esearch.cer接口&lt;/div&gt;" style="rounded=0;whiteSpace=wrap;html=1;fontFamily=小赖字体 sc;fillColor=#d5e8d4;strokeColor=#82b366;" vertex="1" parent="1">
          <mxGeometry x="-4490" y="-3560" width="120" height="60" as="geometry" />
        </mxCell>
        <mxCell id="3dr3AcMasKzA3oTOAPOF-92" value="&lt;div data-lake_diagram_content_editor_data=&quot;true&quot;&gt;&lt;div data-lake_diagram_content_editor_data=&quot;true&quot;&gt;接口文档：链接中的1.9&lt;div&gt;&lt;a target=&quot;_blank&quot; href=&quot;https://devops.ctcdn.cn/wone/pages/viewpage.action?pageId=84271193&quot;&gt;https://devops.ctcdn.cn/wone/pages/viewpage.action?pageId=84271193&lt;/a&gt;&lt;/div&gt;&lt;/div&gt;&lt;/div&gt;" style="whiteSpace=wrap;html=1;shape=mxgraph.basic.document;fontFamily=小赖字体 sc;align=left;fillColor=#fff2cc;strokeColor=#d6b656;" vertex="1" parent="1">
          <mxGeometry x="-4350" y="-3550" width="350" height="50" as="geometry" />
        </mxCell>
        <mxCell id="3dr3AcMasKzA3oTOAPOF-93" value="" style="edgeStyle=orthogonalEdgeStyle;rounded=0;orthogonalLoop=1;jettySize=auto;html=1;" edge="1" parent="1" source="3dr3AcMasKzA3oTOAPOF-94" target="3dr3AcMasKzA3oTOAPOF-96">
          <mxGeometry relative="1" as="geometry" />
        </mxCell>
        <mxCell id="3dr3AcMasKzA3oTOAPOF-94" value="&lt;div data-lake_diagram_content_editor_data=&quot;true&quot;&gt;&lt;div data-lake_diagram_content_editor_data=&quot;true&quot;&gt;&lt;div data-lake_diagram_content_editor_data=&quot;true&quot;&gt;&lt;div data-lake_diagram_content_editor_data=&quot;true&quot;&gt;&lt;div data-lake_diagram_content_editor_data=&quot;true&quot;&gt;&amp;nbsp;通过clusterId + serviceId查找ES/OS的主机ip，选一个使用&lt;/div&gt;&lt;/div&gt;&lt;/div&gt;&lt;/div&gt;&lt;/div&gt;" style="rounded=0;whiteSpace=wrap;html=1;fontFamily=小赖字体 sc;fillColor=#f8cecc;strokeColor=#b85450;" vertex="1" parent="1">
          <mxGeometry x="-4520" y="-3260" width="180" height="60" as="geometry" />
        </mxCell>
        <mxCell id="3dr3AcMasKzA3oTOAPOF-95" value="" style="edgeStyle=orthogonalEdgeStyle;rounded=0;orthogonalLoop=1;jettySize=auto;html=1;" edge="1" parent="1" source="3dr3AcMasKzA3oTOAPOF-96" target="3dr3AcMasKzA3oTOAPOF-98">
          <mxGeometry relative="1" as="geometry" />
        </mxCell>
        <mxCell id="3dr3AcMasKzA3oTOAPOF-96" value="&lt;div data-lake_diagram_content_editor_data=&quot;true&quot;&gt;&lt;div data-lake_diagram_content_editor_data=&quot;true&quot;&gt;&lt;div data-lake_diagram_content_editor_data=&quot;true&quot;&gt;&lt;div data-lake_diagram_content_editor_data=&quot;true&quot;&gt;&lt;div data-lake_diagram_content_editor_data=&quot;true&quot;&gt;&lt;div data-lake_diagram_content_editor_data=&quot;true&quot;&gt;adhoc，获取esearch.cer的base64编码结果result&lt;/div&gt;&lt;/div&gt;&lt;/div&gt;&lt;/div&gt;&lt;/div&gt;&lt;/div&gt;" style="rounded=0;whiteSpace=wrap;html=1;fontFamily=小赖字体 sc;fillColor=#f8cecc;strokeColor=#b85450;" vertex="1" parent="1">
          <mxGeometry x="-4520" y="-3120" width="180" height="60" as="geometry" />
        </mxCell>
        <mxCell id="3dr3AcMasKzA3oTOAPOF-97" value="" style="edgeStyle=orthogonalEdgeStyle;rounded=0;orthogonalLoop=1;jettySize=auto;html=1;" edge="1" parent="1" source="3dr3AcMasKzA3oTOAPOF-98" target="3dr3AcMasKzA3oTOAPOF-120">
          <mxGeometry relative="1" as="geometry" />
        </mxCell>
        <mxCell id="3dr3AcMasKzA3oTOAPOF-98" value="&lt;div data-lake_diagram_content_editor_data=&quot;true&quot;&gt;&lt;div data-lake_diagram_content_editor_data=&quot;true&quot;&gt;&lt;div data-lake_diagram_content_editor_data=&quot;true&quot;&gt;&lt;div data-lake_diagram_content_editor_data=&quot;true&quot;&gt;&lt;div data-lake_diagram_content_editor_data=&quot;true&quot;&gt;&lt;div data-lake_diagram_content_editor_data=&quot;true&quot;&gt;&lt;div data-lake_diagram_content_editor_data=&quot;true&quot;&gt;返回result&lt;/div&gt;&lt;/div&gt;&lt;/div&gt;&lt;/div&gt;&lt;/div&gt;&lt;/div&gt;&lt;/div&gt;" style="rounded=0;whiteSpace=wrap;html=1;fontFamily=小赖字体 sc;fillColor=#f8cecc;strokeColor=#b85450;" vertex="1" parent="1">
          <mxGeometry x="-4520" y="-2980" width="180" height="60" as="geometry" />
        </mxCell>
        <mxCell id="3dr3AcMasKzA3oTOAPOF-99" value="&lt;div data-lake_diagram_content_editor_data=&quot;true&quot;&gt;&lt;div data-lake_diagram_content_editor_data=&quot;true&quot;&gt;【Manager】新增 关闭HTTPS接口&lt;/div&gt;&lt;div data-lake_diagram_content_editor_data=&quot;true&quot;&gt;（复用“更新配置”接口）&lt;/div&gt;&lt;/div&gt;" style="rounded=0;whiteSpace=wrap;html=1;fontFamily=小赖字体 sc;fillColor=#d5e8d4;strokeColor=#82b366;" vertex="1" parent="1">
          <mxGeometry x="-2840" y="-3585" width="150" height="60" as="geometry" />
        </mxCell>
        <mxCell id="3dr3AcMasKzA3oTOAPOF-100" value="&lt;div data-lake_diagram_content_editor_data=&quot;true&quot;&gt;&lt;div data-lake_diagram_content_editor_data=&quot;true&quot;&gt;&lt;div data-lake_diagram_content_editor_data=&quot;true&quot;&gt;部署ES时，请求体中有变化的参数&lt;/div&gt;&lt;div data-lake_diagram_content_editor_data=&quot;true&quot;&gt;&quot;customConfigs&quot;: [&lt;/div&gt;&lt;div data-lake_diagram_content_editor_data=&quot;true&quot;&gt;&amp;nbsp; &amp;nbsp; {&lt;/div&gt;&lt;div data-lake_diagram_content_editor_data=&quot;true&quot;&gt;&amp;nbsp; &amp;nbsp; &amp;nbsp; &amp;nbsp; &quot;serviceName&quot;: &quot;Elasticsearch&quot;,&lt;/div&gt;&lt;div data-lake_diagram_content_editor_data=&quot;true&quot;&gt;&amp;nbsp; &amp;nbsp; &amp;nbsp; &amp;nbsp; &quot;configName&quot;: &quot;Elasticsearch_vars.yaml&quot;,&lt;/div&gt;&lt;div data-lake_diagram_content_editor_data=&quot;true&quot;&gt;&amp;nbsp; &amp;nbsp; &amp;nbsp; &amp;nbsp; &quot;props&quot;: [&lt;/div&gt;&lt;div data-lake_diagram_content_editor_data=&quot;true&quot;&gt;&amp;nbsp; &amp;nbsp; &amp;nbsp; &amp;nbsp; &amp;nbsp; &amp;nbsp; {&lt;/div&gt;&lt;div data-lake_diagram_content_editor_data=&quot;true&quot;&gt;&amp;nbsp; &amp;nbsp; &amp;nbsp; &amp;nbsp; &amp;nbsp; &amp;nbsp; &amp;nbsp; &amp;nbsp; &quot;propName&quot;: &quot;HTTPS_ENABLED&quot;,&lt;/div&gt;&lt;div data-lake_diagram_content_editor_data=&quot;true&quot;&gt;&amp;nbsp; &amp;nbsp; &amp;nbsp; &amp;nbsp; &amp;nbsp; &amp;nbsp; &amp;nbsp; &amp;nbsp; &quot;propValue&quot;: &quot;true&quot; // 如果是关闭https的状态，此处传false&lt;/div&gt;&lt;div data-lake_diagram_content_editor_data=&quot;true&quot;&gt;&amp;nbsp; &amp;nbsp; &amp;nbsp; &amp;nbsp; &amp;nbsp; &amp;nbsp; }&lt;/div&gt;&lt;div data-lake_diagram_content_editor_data=&quot;true&quot;&gt;&amp;nbsp; &amp;nbsp; &amp;nbsp; &amp;nbsp; ]&lt;/div&gt;&lt;div data-lake_diagram_content_editor_data=&quot;true&quot;&gt;&amp;nbsp; &amp;nbsp; },&lt;/div&gt;&lt;div data-lake_diagram_content_editor_data=&quot;true&quot;&gt;&amp;nbsp; &amp;nbsp; {&lt;/div&gt;&lt;div data-lake_diagram_content_editor_data=&quot;true&quot;&gt;&amp;nbsp; &amp;nbsp; &amp;nbsp; &amp;nbsp; &quot;serviceName&quot;: &quot;Elasticsearch&quot;,&lt;/div&gt;&lt;div data-lake_diagram_content_editor_data=&quot;true&quot;&gt;&amp;nbsp; &amp;nbsp; &amp;nbsp; &amp;nbsp; &quot;configName&quot;: &quot;elasticsearch.yml&quot;,&lt;/div&gt;&lt;div data-lake_diagram_content_editor_data=&quot;true&quot;&gt;&amp;nbsp; &amp;nbsp; &amp;nbsp; &amp;nbsp; &quot;props&quot;: [&lt;/div&gt;&lt;div data-lake_diagram_content_editor_data=&quot;true&quot;&gt;&amp;nbsp; &amp;nbsp; &amp;nbsp; &amp;nbsp; &amp;nbsp; &amp;nbsp; {&lt;/div&gt;&lt;div data-lake_diagram_content_editor_data=&quot;true&quot;&gt;&amp;nbsp; &amp;nbsp; &amp;nbsp; &amp;nbsp; &amp;nbsp; &amp;nbsp; &amp;nbsp; &amp;nbsp; &quot;propName&quot;: &quot;opendistro_security.ssl.http.enabled&quot;,&lt;/div&gt;&lt;div data-lake_diagram_content_editor_data=&quot;true&quot;&gt;&amp;nbsp; &amp;nbsp; &amp;nbsp; &amp;nbsp; &amp;nbsp; &amp;nbsp; &amp;nbsp; &amp;nbsp; &quot;propValue&quot;: &quot;true&quot; // 如果是关闭https的状态，此处传false&lt;/div&gt;&lt;div data-lake_diagram_content_editor_data=&quot;true&quot;&gt;&amp;nbsp; &amp;nbsp; &amp;nbsp; &amp;nbsp; &amp;nbsp; &amp;nbsp; }&lt;/div&gt;&lt;div data-lake_diagram_content_editor_data=&quot;true&quot;&gt;&amp;nbsp; &amp;nbsp; &amp;nbsp; &amp;nbsp; ]&lt;/div&gt;&lt;div data-lake_diagram_content_editor_data=&quot;true&quot;&gt;&amp;nbsp; &amp;nbsp; },&lt;/div&gt;&lt;div data-lake_diagram_content_editor_data=&quot;true&quot;&gt;&amp;nbsp; &amp;nbsp; {&lt;/div&gt;&lt;div data-lake_diagram_content_editor_data=&quot;true&quot;&gt;&amp;nbsp; &amp;nbsp; &amp;nbsp; &amp;nbsp; &quot;serviceName&quot;: &quot;Elasticsearch&quot;,&lt;/div&gt;&lt;div data-lake_diagram_content_editor_data=&quot;true&quot;&gt;&amp;nbsp; &amp;nbsp; &amp;nbsp; &amp;nbsp; &quot;configName&quot;: &quot;kibana.yml&quot;,&lt;/div&gt;&lt;div data-lake_diagram_content_editor_data=&quot;true&quot;&gt;&amp;nbsp; &amp;nbsp; &amp;nbsp; &amp;nbsp; &quot;props&quot;: [&lt;/div&gt;&lt;div data-lake_diagram_content_editor_data=&quot;true&quot;&gt;&amp;nbsp; &amp;nbsp; &amp;nbsp; &amp;nbsp; &amp;nbsp; &amp;nbsp; {&lt;/div&gt;&lt;div data-lake_diagram_content_editor_data=&quot;true&quot;&gt;&amp;nbsp; &amp;nbsp; &amp;nbsp; &amp;nbsp; &amp;nbsp; &amp;nbsp; &amp;nbsp; &amp;nbsp; &quot;propName&quot;: &quot;opendistro_security.cookie.secure&quot;,&lt;/div&gt;&lt;div data-lake_diagram_content_editor_data=&quot;true&quot;&gt;&amp;nbsp; &amp;nbsp; &amp;nbsp; &amp;nbsp; &amp;nbsp; &amp;nbsp; &amp;nbsp; &amp;nbsp; &quot;propValue&quot;: &quot;true&quot; // 如果是关闭https的状态，此处传false&lt;/div&gt;&lt;div data-lake_diagram_content_editor_data=&quot;true&quot;&gt;&amp;nbsp; &amp;nbsp; &amp;nbsp; &amp;nbsp; &amp;nbsp; &amp;nbsp; },&lt;/div&gt;&lt;div data-lake_diagram_content_editor_data=&quot;true&quot;&gt;&amp;nbsp; &amp;nbsp; &amp;nbsp; &amp;nbsp; &amp;nbsp; &amp;nbsp; {&lt;/div&gt;&lt;div data-lake_diagram_content_editor_data=&quot;true&quot;&gt;&amp;nbsp; &amp;nbsp; &amp;nbsp; &amp;nbsp; &amp;nbsp; &amp;nbsp; &amp;nbsp; &amp;nbsp; &quot;propName&quot;: &quot;elasticsearch.hosts&quot;,&lt;/div&gt;&lt;div data-lake_diagram_content_editor_data=&quot;true&quot;&gt;&amp;nbsp; &amp;nbsp; &amp;nbsp; &amp;nbsp; &amp;nbsp; &amp;nbsp; &amp;nbsp; &amp;nbsp; &quot;propValue&quot;: &quot;[\&quot;https://node01:9200\&quot;, \&quot;https://node02:9200\&quot;, \&quot;https://node03:9200\&quot;]&quot; // 如果是关闭https的状态，此处的https改为http&lt;/div&gt;&lt;div data-lake_diagram_content_editor_data=&quot;true&quot;&gt;&amp;nbsp; &amp;nbsp; &amp;nbsp; &amp;nbsp; &amp;nbsp; &amp;nbsp; }&lt;/div&gt;&lt;div data-lake_diagram_content_editor_data=&quot;true&quot;&gt;&amp;nbsp; &amp;nbsp; &amp;nbsp; &amp;nbsp; ]&lt;/div&gt;&lt;div data-lake_diagram_content_editor_data=&quot;true&quot;&gt;&amp;nbsp; &amp;nbsp; }&lt;/div&gt;&lt;div data-lake_diagram_content_editor_data=&quot;true&quot;&gt;]&lt;/div&gt;&lt;/div&gt;&lt;/div&gt;" style="rounded=0;whiteSpace=wrap;html=1;fontFamily=小赖字体 sc;fillColor=#e1d5e7;strokeColor=#9673a6;align=left;" vertex="1" parent="1">
          <mxGeometry x="-3740" y="-3320" width="870" height="620" as="geometry" />
        </mxCell>
        <mxCell id="3dr3AcMasKzA3oTOAPOF-101" value="&lt;div data-lake_diagram_content_editor_data=&quot;true&quot;&gt;&lt;div data-lake_diagram_content_editor_data=&quot;true&quot;&gt;&lt;div data-lake_diagram_content_editor_data=&quot;true&quot;&gt;&lt;div data-lake_diagram_content_editor_data=&quot;true&quot;&gt;&lt;div&gt;部署OS时，请求体中有变化的参数&lt;/div&gt;&quot;customConfigs&quot;: [&lt;br&gt;&lt;div&gt;&amp;nbsp; &amp;nbsp; {&lt;br&gt;&lt;/div&gt;&lt;div&gt;&amp;nbsp; &amp;nbsp; &amp;nbsp; &amp;nbsp; &quot;serviceName&quot;: &quot;OpenSearch&quot;,&lt;br&gt;&lt;/div&gt;&lt;div&gt;&amp;nbsp; &amp;nbsp; &amp;nbsp; &amp;nbsp; &quot;configName&quot;: &quot;OpenSearch_vars.yaml&quot;,&lt;br&gt;&lt;/div&gt;&lt;div&gt;&amp;nbsp; &amp;nbsp; &amp;nbsp; &amp;nbsp; &quot;props&quot;: [&lt;br&gt;&lt;/div&gt;&lt;div&gt;&amp;nbsp; &amp;nbsp; &amp;nbsp; &amp;nbsp; &amp;nbsp; &amp;nbsp; {&lt;br&gt;&lt;/div&gt;&lt;div&gt;&amp;nbsp; &amp;nbsp; &amp;nbsp; &amp;nbsp; &amp;nbsp; &amp;nbsp; &amp;nbsp; &amp;nbsp; &quot;propName&quot;: &quot;HTTPS_ENABLED&quot;,&lt;br&gt;&lt;/div&gt;&lt;div&gt;&amp;nbsp; &amp;nbsp; &amp;nbsp; &amp;nbsp; &amp;nbsp; &amp;nbsp; &amp;nbsp; &amp;nbsp; &quot;propValue&quot;: &quot;true&quot; // 如果是关闭https的状态，此处传false&lt;br&gt;&lt;/div&gt;&lt;div&gt;&amp;nbsp; &amp;nbsp; &amp;nbsp; &amp;nbsp; &amp;nbsp; &amp;nbsp; }&lt;/div&gt;&lt;div&gt;&amp;nbsp; &amp;nbsp; &amp;nbsp; &amp;nbsp; ]&lt;br&gt;&lt;/div&gt;&lt;div&gt;&amp;nbsp; &amp;nbsp; },&lt;br&gt;&lt;/div&gt;&lt;div&gt;&amp;nbsp; &amp;nbsp; {&lt;br&gt;&lt;/div&gt;&lt;div&gt;&amp;nbsp; &amp;nbsp; &amp;nbsp; &amp;nbsp; &quot;serviceName&quot;: &quot;OpenSearch&quot;,&lt;br&gt;&lt;/div&gt;&lt;div&gt;&amp;nbsp; &amp;nbsp; &amp;nbsp; &amp;nbsp; &quot;configName&quot;: &quot;opensearch.yml&quot;,&lt;br&gt;&lt;/div&gt;&lt;div&gt;&amp;nbsp; &amp;nbsp; &amp;nbsp; &amp;nbsp; &quot;props&quot;: [&lt;br&gt;&lt;/div&gt;&lt;div&gt;&amp;nbsp; &amp;nbsp; &amp;nbsp; &amp;nbsp; &amp;nbsp; &amp;nbsp; {&lt;br&gt;&lt;/div&gt;&lt;div&gt;&amp;nbsp; &amp;nbsp; &amp;nbsp; &amp;nbsp; &amp;nbsp; &amp;nbsp; &amp;nbsp; &amp;nbsp; &quot;propName&quot;: &quot;plugins.security.ssl.http.enabled&quot;,&lt;br&gt;&lt;/div&gt;&lt;div&gt;&amp;nbsp; &amp;nbsp; &amp;nbsp; &amp;nbsp; &amp;nbsp; &amp;nbsp; &amp;nbsp; &amp;nbsp; &quot;propValue&quot;: &quot;true&quot; // 如果是关闭https的状态，此处传false&lt;br&gt;&lt;/div&gt;&lt;div&gt;&amp;nbsp; &amp;nbsp; &amp;nbsp; &amp;nbsp; &amp;nbsp; &amp;nbsp; }&lt;br&gt;&lt;/div&gt;&lt;div&gt;&amp;nbsp; &amp;nbsp; &amp;nbsp; &amp;nbsp; ]&lt;br&gt;&lt;/div&gt;&lt;div&gt;&amp;nbsp; &amp;nbsp; },&lt;br&gt;&lt;/div&gt;&lt;div&gt;&amp;nbsp; &amp;nbsp; {&lt;br&gt;&lt;/div&gt;&lt;div&gt;&amp;nbsp; &amp;nbsp; &amp;nbsp; &amp;nbsp; &quot;serviceName&quot;: &quot;OpenSearch&quot;,&lt;br&gt;&lt;/div&gt;&lt;div&gt;&amp;nbsp; &amp;nbsp; &amp;nbsp; &amp;nbsp; &quot;configName&quot;: &quot;opensearch_dashboards.yml&quot;,&lt;br&gt;&lt;/div&gt;&lt;div&gt;&amp;nbsp; &amp;nbsp; &amp;nbsp; &amp;nbsp; &quot;props&quot;: [&lt;br&gt;&lt;/div&gt;&lt;div&gt;&amp;nbsp; &amp;nbsp; &amp;nbsp; &amp;nbsp; &amp;nbsp; &amp;nbsp; {&lt;br&gt;&lt;/div&gt;&lt;div&gt;&amp;nbsp; &amp;nbsp; &amp;nbsp; &amp;nbsp; &amp;nbsp; &amp;nbsp; &amp;nbsp; &amp;nbsp; &quot;propName&quot;: &quot;opensearch_security.cookie.secure&quot;,&lt;br&gt;&lt;/div&gt;&lt;div&gt;&amp;nbsp; &amp;nbsp; &amp;nbsp; &amp;nbsp; &amp;nbsp; &amp;nbsp; &amp;nbsp; &amp;nbsp; &quot;propValue&quot;: &quot;true&quot; // 如果是关闭https的状态，此处传false&lt;br&gt;&lt;/div&gt;&lt;div&gt;&amp;nbsp; &amp;nbsp; &amp;nbsp; &amp;nbsp; &amp;nbsp; &amp;nbsp; },&lt;br&gt;&lt;/div&gt;&lt;div&gt;&amp;nbsp; &amp;nbsp; &amp;nbsp; &amp;nbsp; &amp;nbsp; &amp;nbsp; {&lt;br&gt;&lt;/div&gt;&lt;div&gt;&amp;nbsp; &amp;nbsp; &amp;nbsp; &amp;nbsp; &amp;nbsp; &amp;nbsp; &amp;nbsp; &amp;nbsp; &quot;propName&quot;: &quot;opensearch.hosts&quot;,&lt;br&gt;&lt;/div&gt;&lt;div&gt;&amp;nbsp; &amp;nbsp; &amp;nbsp; &amp;nbsp; &amp;nbsp; &amp;nbsp; &amp;nbsp; &amp;nbsp; &quot;propValue&quot;: &quot;[\&quot;https://node01:9200\&quot;, \&quot;https://node02:9200\&quot;, \&quot;https://node03:9200\&quot;]&quot; // 如果是关闭https的状态，此处的https改为http&lt;br&gt;&lt;/div&gt;&lt;div&gt;&amp;nbsp; &amp;nbsp; &amp;nbsp; &amp;nbsp; &amp;nbsp; &amp;nbsp; }&lt;br&gt;&lt;/div&gt;&lt;div&gt;&amp;nbsp; &amp;nbsp; &amp;nbsp; &amp;nbsp; ]&lt;br&gt;&lt;/div&gt;&lt;div&gt;&amp;nbsp; &amp;nbsp; }&lt;br&gt;&lt;/div&gt;&lt;div&gt;]&lt;/div&gt;&lt;/div&gt;&lt;/div&gt;&lt;/div&gt;&lt;/div&gt;" style="rounded=0;whiteSpace=wrap;html=1;fontFamily=小赖字体 sc;fillColor=#e1d5e7;strokeColor=#9673a6;align=left;" vertex="1" parent="1">
          <mxGeometry x="-2850" y="-3320" width="870" height="620" as="geometry" />
        </mxCell>
        <mxCell id="3dr3AcMasKzA3oTOAPOF-102" value="" style="endArrow=classic;html=1;rounded=0;exitX=0.458;exitY=0.967;exitDx=0;exitDy=0;exitPerimeter=0;entryX=0.5;entryY=0;entryDx=0;entryDy=0;" edge="1" parent="1" source="3dr3AcMasKzA3oTOAPOF-109" target="3dr3AcMasKzA3oTOAPOF-100">
          <mxGeometry width="50" height="50" relative="1" as="geometry">
            <mxPoint x="-2976.96" y="-3517" as="sourcePoint" />
            <mxPoint x="-3030" y="-3360" as="targetPoint" />
          </mxGeometry>
        </mxCell>
        <mxCell id="3dr3AcMasKzA3oTOAPOF-103" value="" style="endArrow=classic;html=1;rounded=0;exitX=0.453;exitY=0.993;exitDx=0;exitDy=0;exitPerimeter=0;entryX=0.25;entryY=0;entryDx=0;entryDy=0;" edge="1" parent="1" source="3dr3AcMasKzA3oTOAPOF-109" target="3dr3AcMasKzA3oTOAPOF-101">
          <mxGeometry width="50" height="50" relative="1" as="geometry">
            <mxPoint x="-2979.959999999999" y="-3518.0200000000004" as="sourcePoint" />
            <mxPoint x="-3295" y="-3310" as="targetPoint" />
          </mxGeometry>
        </mxCell>
        <mxCell id="3dr3AcMasKzA3oTOAPOF-104" value="" style="endArrow=classic;html=1;rounded=0;exitX=0.5;exitY=1;exitDx=0;exitDy=0;entryX=0.75;entryY=0;entryDx=0;entryDy=0;" edge="1" parent="1" source="3dr3AcMasKzA3oTOAPOF-99" target="3dr3AcMasKzA3oTOAPOF-100">
          <mxGeometry width="50" height="50" relative="1" as="geometry">
            <mxPoint x="-2967" y="-3507" as="sourcePoint" />
            <mxPoint x="-3295" y="-3310" as="targetPoint" />
          </mxGeometry>
        </mxCell>
        <mxCell id="3dr3AcMasKzA3oTOAPOF-105" value="" style="endArrow=classic;html=1;rounded=0;entryX=0.25;entryY=0;entryDx=0;entryDy=0;exitX=0.5;exitY=1;exitDx=0;exitDy=0;" edge="1" parent="1" source="3dr3AcMasKzA3oTOAPOF-99" target="3dr3AcMasKzA3oTOAPOF-101">
          <mxGeometry width="50" height="50" relative="1" as="geometry">
            <mxPoint x="-2750" y="-3520" as="sourcePoint" />
            <mxPoint x="-3285" y="-3300" as="targetPoint" />
          </mxGeometry>
        </mxCell>
        <mxCell id="3dr3AcMasKzA3oTOAPOF-106" value="&lt;div data-lake_diagram_content_editor_data=&quot;true&quot;&gt;&lt;div data-lake_diagram_content_editor_data=&quot;true&quot;&gt;接口文档：链接中的1.4&lt;div&gt;&lt;a target=&quot;_blank&quot; href=&quot;https://devops.ctcdn.cn/wone/pages/viewpage.action?pageId=84271193&quot;&gt;https://devops.ctcdn.cn/wone/pages/viewpage.action?pageId=84271193&lt;/a&gt;&lt;/div&gt;&lt;/div&gt;&lt;/div&gt;" style="whiteSpace=wrap;html=1;shape=mxgraph.basic.document;fontFamily=小赖字体 sc;align=left;fillColor=#fff2cc;strokeColor=#d6b656;" vertex="1" parent="1">
          <mxGeometry x="-2660" y="-3575" width="350" height="50" as="geometry" />
        </mxCell>
        <mxCell id="3dr3AcMasKzA3oTOAPOF-107" value="&lt;div data-lake_diagram_content_editor_data=&quot;true&quot;&gt;&lt;div data-lake_diagram_content_editor_data=&quot;true&quot;&gt;接口文档：链接中的2.1&lt;br&gt;https://devops.ctcdn.cn/wone/pages/viewpage.action?pageId=7450605&lt;br&gt;&lt;/div&gt;&lt;/div&gt;" style="whiteSpace=wrap;html=1;shape=mxgraph.basic.document;fontFamily=小赖字体 sc;align=left;fillColor=#fff2cc;strokeColor=#d6b656;" vertex="1" parent="1">
          <mxGeometry x="-6300" y="-3440" width="420" height="60" as="geometry" />
        </mxCell>
        <mxCell id="3dr3AcMasKzA3oTOAPOF-108" value="&lt;div data-lake_diagram_content_editor_data=&quot;true&quot;&gt;&lt;div data-lake_diagram_content_editor_data=&quot;true&quot;&gt;接口文档：链接中的3.3&lt;br&gt;https://devops.ctcdn.cn/wone/pages/viewpage.action?pageId=7450605&lt;br&gt;&lt;/div&gt;&lt;/div&gt;" style="whiteSpace=wrap;html=1;shape=mxgraph.basic.document;fontFamily=小赖字体 sc;align=left;fillColor=#fff2cc;strokeColor=#d6b656;" vertex="1" parent="1">
          <mxGeometry x="-4980" y="-3560" width="420" height="60" as="geometry" />
        </mxCell>
        <mxCell id="3dr3AcMasKzA3oTOAPOF-109" value="&lt;div data-lake_diagram_content_editor_data=&quot;true&quot;&gt;&lt;div data-lake_diagram_content_editor_data=&quot;true&quot;&gt;【Manager】新增 开启HTTPS接口&lt;/div&gt;&lt;div data-lake_diagram_content_editor_data=&quot;true&quot;&gt;（复用“更新配置”接口）&lt;/div&gt;&lt;/div&gt;" style="rounded=0;whiteSpace=wrap;html=1;fontFamily=小赖字体 sc;fillColor=#d5e8d4;strokeColor=#82b366;" vertex="1" parent="1">
          <mxGeometry x="-3050" y="-3585" width="150" height="60" as="geometry" />
        </mxCell>
        <mxCell id="3dr3AcMasKzA3oTOAPOF-110" value="&lt;font color=&quot;#df2a3f&quot;&gt;Kibana的配置文件并不能直接解析${HOSTNAME}，这点与ES不同；两种方法：&lt;br&gt;1. 通过config_sync_template来实现；在配置同步时，动态地生成每个主机的配置；&lt;br&gt;2. dynamic_template，因为Kibana只有一台，可以通过${roles.Kibana.instances[0].hostname}动态生成；&lt;br&gt;&lt;/font&gt;&lt;div data-lake_diagram_content_editor_data=&quot;true&quot;&gt;&lt;/div&gt;" style="whiteSpace=wrap;html=1;shape=mxgraph.basic.document;fontFamily=小赖字体 sc;align=left;fillColor=#fff2cc;strokeColor=#d6b656;" vertex="1" parent="1">
          <mxGeometry x="-8230" y="-2680" width="320" height="120" as="geometry" />
        </mxCell>
        <mxCell id="3dr3AcMasKzA3oTOAPOF-111" value="&lt;font color=&quot;#df2a3f&quot;&gt;对于PASSWORD，Manager需要做的：&lt;br&gt;需要先通过rsa私钥解密；&lt;br&gt;然后存入propValue中，&lt;br&gt;后续的代码会自动做aes加密，然后入库；&lt;br&gt;读取时，会通过TypeHandler自动解密；&lt;br&gt;&lt;/font&gt;&lt;div data-lake_diagram_content_editor_data=&quot;true&quot;&gt;&lt;/div&gt;" style="whiteSpace=wrap;html=1;shape=mxgraph.basic.document;fontFamily=小赖字体 sc;align=left;fillColor=#fff2cc;strokeColor=#d6b656;" vertex="1" parent="1">
          <mxGeometry x="-6850" y="-3140" width="260" height="100" as="geometry" />
        </mxCell>
        <mxCell id="3dr3AcMasKzA3oTOAPOF-112" value="对于PASSWORD，Manager需要做的：&lt;br style=&quot;border-color: var(--border-color);&quot;&gt;&lt;span style=&quot;&quot;&gt;需要先通过rsa私钥解密；&lt;/span&gt;&lt;br style=&quot;border-color: var(--border-color);&quot;&gt;&lt;span style=&quot;&quot;&gt;然后存入propValue中，&lt;/span&gt;&lt;br style=&quot;border-color: var(--border-color);&quot;&gt;&lt;span style=&quot;&quot;&gt;后续的代码会自动做aes加密，然后入库；&lt;/span&gt;&lt;br style=&quot;border-color: var(--border-color);&quot;&gt;&lt;span style=&quot;&quot;&gt;读取时，会通过TypeHandler自动解密；&lt;/span&gt;&lt;font&gt;&lt;br&gt;&lt;/font&gt;&lt;div data-lake_diagram_content_editor_data=&quot;true&quot;&gt;&lt;/div&gt;" style="whiteSpace=wrap;html=1;shape=mxgraph.basic.document;fontFamily=小赖字体 sc;align=left;fillColor=#fff2cc;strokeColor=#d6b656;fontColor=#FF3333;" vertex="1" parent="1">
          <mxGeometry x="-5930" y="-3140" width="260" height="100" as="geometry" />
        </mxCell>
        <mxCell id="3dr3AcMasKzA3oTOAPOF-113" value="" style="edgeStyle=orthogonalEdgeStyle;rounded=0;orthogonalLoop=1;jettySize=auto;html=1;" edge="1" parent="1" source="3dr3AcMasKzA3oTOAPOF-117" target="3dr3AcMasKzA3oTOAPOF-94">
          <mxGeometry relative="1" as="geometry" />
        </mxCell>
        <mxCell id="3dr3AcMasKzA3oTOAPOF-114" value="是" style="edgeLabel;html=1;align=center;verticalAlign=middle;resizable=0;points=[];" vertex="1" connectable="0" parent="3dr3AcMasKzA3oTOAPOF-113">
          <mxGeometry x="-0.18" y="4" relative="1" as="geometry">
            <mxPoint as="offset" />
          </mxGeometry>
        </mxCell>
        <mxCell id="3dr3AcMasKzA3oTOAPOF-115" value="" style="edgeStyle=orthogonalEdgeStyle;rounded=0;orthogonalLoop=1;jettySize=auto;html=1;" edge="1" parent="1" source="3dr3AcMasKzA3oTOAPOF-117" target="3dr3AcMasKzA3oTOAPOF-119">
          <mxGeometry relative="1" as="geometry" />
        </mxCell>
        <mxCell id="3dr3AcMasKzA3oTOAPOF-116" value="否" style="edgeLabel;html=1;align=center;verticalAlign=middle;resizable=0;points=[];" vertex="1" connectable="0" parent="3dr3AcMasKzA3oTOAPOF-115">
          <mxGeometry x="-0.5007" y="-2" relative="1" as="geometry">
            <mxPoint as="offset" />
          </mxGeometry>
        </mxCell>
        <mxCell id="3dr3AcMasKzA3oTOAPOF-117" value="HTTP_ENABLED是否为true" style="strokeWidth=2;html=1;shape=mxgraph.flowchart.decision;whiteSpace=wrap;fillColor=#f8cecc;strokeColor=#b85450;" vertex="1" parent="1">
          <mxGeometry x="-4510" y="-3430" width="160" height="100" as="geometry" />
        </mxCell>
        <mxCell id="3dr3AcMasKzA3oTOAPOF-118" style="edgeStyle=orthogonalEdgeStyle;rounded=0;orthogonalLoop=1;jettySize=auto;html=1;entryX=1;entryY=0.75;entryDx=0;entryDy=0;exitX=0.5;exitY=1;exitDx=0;exitDy=0;" edge="1" parent="1" source="3dr3AcMasKzA3oTOAPOF-119" target="3dr3AcMasKzA3oTOAPOF-120">
          <mxGeometry relative="1" as="geometry" />
        </mxCell>
        <mxCell id="3dr3AcMasKzA3oTOAPOF-119" value="抛异常：未开启https，无法下载证书" style="whiteSpace=wrap;html=1;fillColor=#f8cecc;strokeColor=#b85450;strokeWidth=2;" vertex="1" parent="1">
          <mxGeometry x="-4250" y="-3260" width="200" height="60" as="geometry" />
        </mxCell>
        <mxCell id="3dr3AcMasKzA3oTOAPOF-120" value="结束" style="rounded=1;whiteSpace=wrap;html=1;absoluteArcSize=1;arcSize=14;strokeWidth=2;fillColor=#f8cecc;strokeColor=#b85450;" vertex="1" parent="1">
          <mxGeometry x="-4480" y="-2860" width="100" height="40" as="geometry" />
        </mxCell>
        <mxCell id="3dr3AcMasKzA3oTOAPOF-121" value="" style="edgeStyle=orthogonalEdgeStyle;rounded=0;orthogonalLoop=1;jettySize=auto;html=1;" edge="1" parent="1" source="3dr3AcMasKzA3oTOAPOF-122" target="3dr3AcMasKzA3oTOAPOF-130">
          <mxGeometry relative="1" as="geometry" />
        </mxCell>
        <mxCell id="3dr3AcMasKzA3oTOAPOF-122" value="开启/关闭https时，prometheus配置跟着切换&lt;div data-lake_diagram_content_editor_data=&quot;true&quot;&gt;&lt;/div&gt;" style="rounded=0;whiteSpace=wrap;html=1;fontFamily=小赖字体 sc;fillColor=#f8cecc;strokeColor=#b85450;" vertex="1" parent="1">
          <mxGeometry x="-9030" y="-3300" width="260" height="60" as="geometry" />
        </mxCell>
        <mxCell id="3dr3AcMasKzA3oTOAPOF-123" value="开启/关闭HTTPS：OpenSearch修改监控配置文件并reload的逻辑" style="swimlane;" vertex="1" parent="1">
          <mxGeometry x="-9200" y="-3360" width="580" height="570" as="geometry" />
        </mxCell>
        <mxCell id="3dr3AcMasKzA3oTOAPOF-124" value="监控客户端monitorClient.syncTargets(1L)需要做的：&lt;br&gt;&amp;nbsp;1.&amp;nbsp;编写方法：fillSchemeFromConfig(), 将scheme(http/https)填充到模板中；&lt;br&gt;&lt;div data-lake_diagram_content_editor_data=&quot;true&quot;&gt;&lt;/div&gt;" style="rounded=0;whiteSpace=wrap;html=1;fontFamily=小赖字体 sc;fillColor=#f8cecc;strokeColor=#b85450;align=left;" vertex="1" parent="3dr3AcMasKzA3oTOAPOF-123">
          <mxGeometry x="75" y="460" width="450" height="60" as="geometry" />
        </mxCell>
        <mxCell id="3dr3AcMasKzA3oTOAPOF-125" value="roleInstanceService.updateInstanceGroupMonitor()方法需要做的：&lt;br&gt;&amp;nbsp;1.&amp;nbsp;增加对操作类型（&amp;nbsp;开启/关闭HTTPS）的处理逻辑；" style="rounded=0;whiteSpace=wrap;html=1;fontFamily=小赖字体 sc;fillColor=#f8cecc;strokeColor=#b85450;align=left;" vertex="1" parent="3dr3AcMasKzA3oTOAPOF-123">
          <mxGeometry x="100" y="350" width="400" height="60" as="geometry" />
        </mxCell>
        <mxCell id="3dr3AcMasKzA3oTOAPOF-126" value="" style="edgeStyle=orthogonalEdgeStyle;rounded=0;orthogonalLoop=1;jettySize=auto;html=1;" edge="1" parent="3dr3AcMasKzA3oTOAPOF-123" source="3dr3AcMasKzA3oTOAPOF-125" target="3dr3AcMasKzA3oTOAPOF-124">
          <mxGeometry relative="1" as="geometry" />
        </mxCell>
        <mxCell id="3dr3AcMasKzA3oTOAPOF-127" value="更新配置的接口（/configs/update）需要做的：&lt;br&gt;&amp;nbsp;1. 更新监控配置文件并reload（如果是OS开启/关闭https的场景下）&lt;br&gt;&amp;nbsp;2. 实现方法是&lt;b&gt;&lt;font color=&quot;#ff3333&quot;&gt;异步&lt;/font&gt;&lt;/b&gt;调用roleInstanceService.updateInstanceGroupMonitor()，该方法会调用监控客户端monitorClient.syncTargets(1L)，实现更新监控配置文件并reload&lt;div data-lake_diagram_content_editor_data=&quot;true&quot;&gt;&lt;/div&gt;" style="rounded=0;whiteSpace=wrap;html=1;fontFamily=小赖字体 sc;fillColor=#f8cecc;strokeColor=#b85450;align=left;" vertex="1" parent="3dr3AcMasKzA3oTOAPOF-123">
          <mxGeometry x="42.5" y="230" width="515" height="80" as="geometry" />
        </mxCell>
        <mxCell id="3dr3AcMasKzA3oTOAPOF-128" value="" style="edgeStyle=orthogonalEdgeStyle;rounded=0;orthogonalLoop=1;jettySize=auto;html=1;" edge="1" parent="3dr3AcMasKzA3oTOAPOF-123" source="3dr3AcMasKzA3oTOAPOF-127" target="3dr3AcMasKzA3oTOAPOF-125">
          <mxGeometry relative="1" as="geometry" />
        </mxCell>
        <mxCell id="3dr3AcMasKzA3oTOAPOF-129" value="" style="edgeStyle=orthogonalEdgeStyle;rounded=0;orthogonalLoop=1;jettySize=auto;html=1;" edge="1" parent="3dr3AcMasKzA3oTOAPOF-123" source="3dr3AcMasKzA3oTOAPOF-130" target="3dr3AcMasKzA3oTOAPOF-127">
          <mxGeometry relative="1" as="geometry" />
        </mxCell>
        <mxCell id="3dr3AcMasKzA3oTOAPOF-130" value="修改监控模板opensearch.ftl&lt;br&gt;要有默认值http,兼容其他场景&lt;br&gt;&lt;div data-lake_diagram_content_editor_data=&quot;true&quot;&gt;&lt;/div&gt;" style="rounded=0;whiteSpace=wrap;html=1;fontFamily=小赖字体 sc;fillColor=#f8cecc;strokeColor=#b85450;" vertex="1" parent="3dr3AcMasKzA3oTOAPOF-123">
          <mxGeometry x="170" y="150" width="260" height="60" as="geometry" />
        </mxCell>
        <mxCell id="3dr3AcMasKzA3oTOAPOF-131" value="" style="group" vertex="1" connectable="0" parent="1">
          <mxGeometry x="-9980" y="-3350" width="580" height="460" as="geometry" />
        </mxCell>
        <mxCell id="3dr3AcMasKzA3oTOAPOF-132" value="" style="group" vertex="1" connectable="0" parent="3dr3AcMasKzA3oTOAPOF-131">
          <mxGeometry x="35" y="90" width="465" height="350" as="geometry" />
        </mxCell>
        <mxCell id="3dr3AcMasKzA3oTOAPOF-133" value="/one/operation&lt;div data-lake_diagram_content_editor_data=&quot;true&quot;&gt;&lt;/div&gt;" style="rounded=0;whiteSpace=wrap;html=1;fontFamily=小赖字体 sc;fillColor=#f8cecc;strokeColor=#b85450;" vertex="1" parent="3dr3AcMasKzA3oTOAPOF-132">
          <mxGeometry x="15" width="110" height="60" as="geometry" />
        </mxCell>
        <mxCell id="3dr3AcMasKzA3oTOAPOF-134" value="opscheduler&lt;div data-lake_diagram_content_editor_data=&quot;true&quot;&gt;&lt;/div&gt;" style="rounded=0;whiteSpace=wrap;html=1;fontFamily=小赖字体 sc;fillColor=#f8cecc;strokeColor=#b85450;" vertex="1" parent="3dr3AcMasKzA3oTOAPOF-132">
          <mxGeometry x="355" y="40" width="110" height="60" as="geometry" />
        </mxCell>
        <mxCell id="3dr3AcMasKzA3oTOAPOF-135" value="updateClusterState()&lt;div data-lake_diagram_content_editor_data=&quot;true&quot;&gt;&lt;/div&gt;" style="rounded=0;whiteSpace=wrap;html=1;fontFamily=小赖字体 sc;fillColor=#f8cecc;strokeColor=#b85450;" vertex="1" parent="3dr3AcMasKzA3oTOAPOF-132">
          <mxGeometry y="160" width="140" height="60" as="geometry" />
        </mxCell>
        <mxCell id="3dr3AcMasKzA3oTOAPOF-136" value="syscTarget()&lt;br&gt;&lt;div style=&quot;&quot;&gt;&lt;span style=&quot;background-color: initial;&quot;&gt;会更新监控配置并reload&lt;/span&gt;&lt;/div&gt;&lt;div data-lake_diagram_content_editor_data=&quot;true&quot;&gt;&lt;/div&gt;" style="rounded=0;whiteSpace=wrap;html=1;fontFamily=小赖字体 sc;fillColor=#f8cecc;strokeColor=#b85450;align=left;" vertex="1" parent="3dr3AcMasKzA3oTOAPOF-132">
          <mxGeometry y="290" width="140" height="60" as="geometry" />
        </mxCell>
        <mxCell id="3dr3AcMasKzA3oTOAPOF-137" value="" style="endArrow=classic;html=1;rounded=0;exitX=1;exitY=0.5;exitDx=0;exitDy=0;entryX=0;entryY=0.5;entryDx=0;entryDy=0;" edge="1" parent="3dr3AcMasKzA3oTOAPOF-132" source="3dr3AcMasKzA3oTOAPOF-133" target="3dr3AcMasKzA3oTOAPOF-134">
          <mxGeometry width="50" height="50" relative="1" as="geometry">
            <mxPoint x="575" y="80" as="sourcePoint" />
            <mxPoint x="625" y="30" as="targetPoint" />
          </mxGeometry>
        </mxCell>
        <mxCell id="3dr3AcMasKzA3oTOAPOF-138" value="" style="edgeStyle=orthogonalEdgeStyle;rounded=0;orthogonalLoop=1;jettySize=auto;html=1;" edge="1" parent="3dr3AcMasKzA3oTOAPOF-132" source="3dr3AcMasKzA3oTOAPOF-135" target="3dr3AcMasKzA3oTOAPOF-136">
          <mxGeometry relative="1" as="geometry" />
        </mxCell>
        <mxCell id="3dr3AcMasKzA3oTOAPOF-139" value="调用" style="edgeLabel;html=1;align=center;verticalAlign=middle;resizable=0;points=[];" vertex="1" connectable="0" parent="3dr3AcMasKzA3oTOAPOF-138">
          <mxGeometry x="-0.1682" y="2" relative="1" as="geometry">
            <mxPoint as="offset" />
          </mxGeometry>
        </mxCell>
        <mxCell id="3dr3AcMasKzA3oTOAPOF-140" value="" style="endArrow=classic;html=1;rounded=0;exitX=0;exitY=0.5;exitDx=0;exitDy=0;entryX=1;entryY=0.5;entryDx=0;entryDy=0;" edge="1" parent="3dr3AcMasKzA3oTOAPOF-132" source="3dr3AcMasKzA3oTOAPOF-134" target="3dr3AcMasKzA3oTOAPOF-135">
          <mxGeometry width="50" height="50" relative="1" as="geometry">
            <mxPoint x="575" y="80" as="sourcePoint" />
            <mxPoint x="625" y="30" as="targetPoint" />
          </mxGeometry>
        </mxCell>
        <mxCell id="3dr3AcMasKzA3oTOAPOF-141" value="callback" style="edgeLabel;html=1;align=center;verticalAlign=middle;resizable=0;points=[];" vertex="1" connectable="0" parent="3dr3AcMasKzA3oTOAPOF-140">
          <mxGeometry x="0.016" y="5" relative="1" as="geometry">
            <mxPoint as="offset" />
          </mxGeometry>
        </mxCell>
        <mxCell id="3dr3AcMasKzA3oTOAPOF-142" value="OS重置密码：修改监控配置文件并reload的逻辑(参考)" style="swimlane;" vertex="1" parent="3dr3AcMasKzA3oTOAPOF-131">
          <mxGeometry width="580" height="460" as="geometry" />
        </mxCell>
        <mxCell id="3dr3AcMasKzA3oTOAPOF-143" value="&lt;div style=&quot;text-align: left;&quot;&gt;&lt;span style=&quot;background-color: initial;&quot;&gt;1. 根据HTTPS_ENABLED修改/etc/prometheus/conf/process-exporter/{{component}}_{{role}}.yml文件中的scheme配置（http/https）然后再走原本的启动prometheus进程的任务；&lt;br&gt;&lt;/span&gt;&lt;/div&gt;&lt;div data-lake_diagram_content_editor_data=&quot;true&quot;&gt;&lt;/div&gt;" style="rounded=0;whiteSpace=wrap;html=1;fontFamily=小赖字体 sc;fillColor=#f8cecc;strokeColor=#b85450;" vertex="1" parent="1">
          <mxGeometry x="-6200" y="-463" width="410" height="70" as="geometry" />
        </mxCell>
        <mxCell id="3dr3AcMasKzA3oTOAPOF-144" value="（废弃）开启/关闭HTTPS：Elasticsearch修改监控配置文件并reload的逻辑" style="swimlane;container=0;" vertex="1" parent="1">
          <mxGeometry x="-9270" y="-2760" width="720" height="460" as="geometry" />
        </mxCell>
        <mxCell id="3dr3AcMasKzA3oTOAPOF-145" value="" style="edgeStyle=orthogonalEdgeStyle;rounded=0;orthogonalLoop=1;jettySize=auto;html=1;" edge="1" parent="3dr3AcMasKzA3oTOAPOF-144" source="3dr3AcMasKzA3oTOAPOF-147" target="3dr3AcMasKzA3oTOAPOF-154">
          <mxGeometry relative="1" as="geometry" />
        </mxCell>
        <mxCell id="3dr3AcMasKzA3oTOAPOF-146" value="调用" style="edgeLabel;html=1;align=center;verticalAlign=middle;resizable=0;points=[];" vertex="1" connectable="0" parent="3dr3AcMasKzA3oTOAPOF-145">
          <mxGeometry x="-0.1771" relative="1" as="geometry">
            <mxPoint as="offset" />
          </mxGeometry>
        </mxCell>
        <mxCell id="3dr3AcMasKzA3oTOAPOF-147" value="启动/重启" style="rounded=0;whiteSpace=wrap;html=1;fontFamily=小赖字体 sc;fillColor=#f8cecc;strokeColor=#b85450;container=0;" vertex="1" parent="3dr3AcMasKzA3oTOAPOF-144">
          <mxGeometry x="230" y="220" width="110" height="60" as="geometry" />
        </mxCell>
        <mxCell id="3dr3AcMasKzA3oTOAPOF-148" value="扩容&lt;div data-lake_diagram_content_editor_data=&quot;true&quot;&gt;&lt;/div&gt;" style="rounded=0;whiteSpace=wrap;html=1;fontFamily=小赖字体 sc;fillColor=#f8cecc;strokeColor=#b85450;container=0;" vertex="1" parent="3dr3AcMasKzA3oTOAPOF-144">
          <mxGeometry x="35" y="220" width="140" height="60" as="geometry" />
        </mxCell>
        <mxCell id="3dr3AcMasKzA3oTOAPOF-149" value="" style="endArrow=classic;html=1;rounded=0;exitX=1;exitY=0.5;exitDx=0;exitDy=0;entryX=0;entryY=0.5;entryDx=0;entryDy=0;" edge="1" parent="3dr3AcMasKzA3oTOAPOF-144" source="3dr3AcMasKzA3oTOAPOF-148" target="3dr3AcMasKzA3oTOAPOF-147">
          <mxGeometry width="50" height="50" relative="1" as="geometry">
            <mxPoint x="200" y="310" as="sourcePoint" />
            <mxPoint x="390" y="160" as="targetPoint" />
          </mxGeometry>
        </mxCell>
        <mxCell id="3dr3AcMasKzA3oTOAPOF-150" value="部署&lt;div data-lake_diagram_content_editor_data=&quot;true&quot;&gt;&lt;/div&gt;" style="rounded=0;whiteSpace=wrap;html=1;fontFamily=小赖字体 sc;fillColor=#f8cecc;strokeColor=#b85450;align=center;container=0;" vertex="1" parent="3dr3AcMasKzA3oTOAPOF-144">
          <mxGeometry x="35" y="340" width="140" height="60" as="geometry" />
        </mxCell>
        <mxCell id="3dr3AcMasKzA3oTOAPOF-151" value="" style="endArrow=classic;html=1;rounded=0;entryX=0;entryY=0.75;entryDx=0;entryDy=0;exitX=1;exitY=0.5;exitDx=0;exitDy=0;" edge="1" parent="3dr3AcMasKzA3oTOAPOF-144" source="3dr3AcMasKzA3oTOAPOF-150" target="3dr3AcMasKzA3oTOAPOF-147">
          <mxGeometry width="50" height="50" relative="1" as="geometry">
            <mxPoint x="180" y="410" as="sourcePoint" />
            <mxPoint x="400" y="170" as="targetPoint" />
          </mxGeometry>
        </mxCell>
        <mxCell id="3dr3AcMasKzA3oTOAPOF-152" value="" style="endArrow=classic;html=1;rounded=0;exitX=1;exitY=0.5;exitDx=0;exitDy=0;entryX=0;entryY=0.25;entryDx=0;entryDy=0;" edge="1" parent="3dr3AcMasKzA3oTOAPOF-144" source="3dr3AcMasKzA3oTOAPOF-153" target="3dr3AcMasKzA3oTOAPOF-147">
          <mxGeometry width="50" height="50" relative="1" as="geometry">
            <mxPoint x="160" y="130" as="sourcePoint" />
            <mxPoint x="660" y="120" as="targetPoint" />
          </mxGeometry>
        </mxCell>
        <mxCell id="3dr3AcMasKzA3oTOAPOF-153" value="开启/关闭https&lt;div data-lake_diagram_content_editor_data=&quot;true&quot;&gt;&lt;/div&gt;" style="rounded=0;whiteSpace=wrap;html=1;fontFamily=小赖字体 sc;fillColor=#f8cecc;strokeColor=#b85450;container=0;" vertex="1" parent="3dr3AcMasKzA3oTOAPOF-144">
          <mxGeometry x="35" y="110" width="140" height="60" as="geometry" />
        </mxCell>
        <mxCell id="3dr3AcMasKzA3oTOAPOF-154" value="更新ES监控配置的playbook&lt;br&gt;1. 更新/usr/lib/systemd/system/prometheus-es-exporter.service文件；&lt;br&gt;2. 重启prometheus-es-exporter.service" style="rounded=0;whiteSpace=wrap;html=1;fontFamily=小赖字体 sc;fillColor=#f8cecc;strokeColor=#b85450;container=0;align=left;" vertex="1" parent="3dr3AcMasKzA3oTOAPOF-144">
          <mxGeometry x="410" y="185" width="290" height="130" as="geometry" />
        </mxCell>
        <mxCell id="3dr3AcMasKzA3oTOAPOF-155" value="开启/关闭HTTPS：Elasticsearch修改监控配置文件并reload的逻辑" style="swimlane;container=0;" vertex="1" parent="1">
          <mxGeometry x="-9270" y="-2260" width="720" height="460" as="geometry" />
        </mxCell>
        <mxCell id="3dr3AcMasKzA3oTOAPOF-156" value="" style="rounded=0;orthogonalLoop=1;jettySize=auto;html=1;" edge="1" parent="3dr3AcMasKzA3oTOAPOF-155" source="3dr3AcMasKzA3oTOAPOF-158" target="3dr3AcMasKzA3oTOAPOF-167">
          <mxGeometry relative="1" as="geometry" />
        </mxCell>
        <mxCell id="3dr3AcMasKzA3oTOAPOF-157" value="调用" style="edgeLabel;html=1;align=center;verticalAlign=middle;resizable=0;points=[];" vertex="1" connectable="0" parent="3dr3AcMasKzA3oTOAPOF-156">
          <mxGeometry x="-0.1771" relative="1" as="geometry">
            <mxPoint as="offset" />
          </mxGeometry>
        </mxCell>
        <mxCell id="3dr3AcMasKzA3oTOAPOF-158" value="滚动重启&lt;br&gt;（改playbook）" style="rounded=0;whiteSpace=wrap;html=1;fontFamily=小赖字体 sc;fillColor=#f8cecc;strokeColor=#b85450;container=0;" vertex="1" parent="3dr3AcMasKzA3oTOAPOF-155">
          <mxGeometry x="230" y="140" width="110" height="60" as="geometry" />
        </mxCell>
        <mxCell id="3dr3AcMasKzA3oTOAPOF-159" style="edgeStyle=orthogonalEdgeStyle;rounded=0;orthogonalLoop=1;jettySize=auto;html=1;exitX=1;exitY=0.5;exitDx=0;exitDy=0;entryX=0;entryY=0.5;entryDx=0;entryDy=0;" edge="1" parent="3dr3AcMasKzA3oTOAPOF-155" source="3dr3AcMasKzA3oTOAPOF-161" target="3dr3AcMasKzA3oTOAPOF-167">
          <mxGeometry relative="1" as="geometry" />
        </mxCell>
        <mxCell id="3dr3AcMasKzA3oTOAPOF-160" value="调用" style="edgeLabel;html=1;align=center;verticalAlign=middle;resizable=0;points=[];" vertex="1" connectable="0" parent="3dr3AcMasKzA3oTOAPOF-159">
          <mxGeometry x="-0.3245" y="-2" relative="1" as="geometry">
            <mxPoint as="offset" />
          </mxGeometry>
        </mxCell>
        <mxCell id="3dr3AcMasKzA3oTOAPOF-161" value="扩容&lt;br&gt;(改stack-流水线)&lt;br&gt;&lt;div data-lake_diagram_content_editor_data=&quot;true&quot;&gt;&lt;/div&gt;" style="rounded=0;whiteSpace=wrap;html=1;fontFamily=小赖字体 sc;fillColor=#f8cecc;strokeColor=#b85450;container=0;" vertex="1" parent="3dr3AcMasKzA3oTOAPOF-155">
          <mxGeometry x="35" y="220" width="140" height="60" as="geometry" />
        </mxCell>
        <mxCell id="3dr3AcMasKzA3oTOAPOF-162" style="rounded=0;orthogonalLoop=1;jettySize=auto;html=1;entryX=-0.001;entryY=0.694;entryDx=0;entryDy=0;entryPerimeter=0;" edge="1" parent="3dr3AcMasKzA3oTOAPOF-155" source="3dr3AcMasKzA3oTOAPOF-164" target="3dr3AcMasKzA3oTOAPOF-167">
          <mxGeometry relative="1" as="geometry" />
        </mxCell>
        <mxCell id="3dr3AcMasKzA3oTOAPOF-163" value="调用" style="edgeLabel;html=1;align=center;verticalAlign=middle;resizable=0;points=[];" vertex="1" connectable="0" parent="3dr3AcMasKzA3oTOAPOF-162">
          <mxGeometry x="-0.7275" y="-1" relative="1" as="geometry">
            <mxPoint as="offset" />
          </mxGeometry>
        </mxCell>
        <mxCell id="3dr3AcMasKzA3oTOAPOF-164" value="部署&lt;br&gt;（改stack-流水线）&lt;br&gt;&lt;div data-lake_diagram_content_editor_data=&quot;true&quot;&gt;&lt;/div&gt;" style="rounded=0;whiteSpace=wrap;html=1;fontFamily=小赖字体 sc;fillColor=#f8cecc;strokeColor=#b85450;align=center;container=0;" vertex="1" parent="3dr3AcMasKzA3oTOAPOF-155">
          <mxGeometry x="35" y="340" width="140" height="60" as="geometry" />
        </mxCell>
        <mxCell id="3dr3AcMasKzA3oTOAPOF-165" value="" style="endArrow=classic;html=1;rounded=0;exitX=1;exitY=0.5;exitDx=0;exitDy=0;entryX=0;entryY=0.25;entryDx=0;entryDy=0;" edge="1" parent="3dr3AcMasKzA3oTOAPOF-155" source="3dr3AcMasKzA3oTOAPOF-166" target="3dr3AcMasKzA3oTOAPOF-158">
          <mxGeometry width="50" height="50" relative="1" as="geometry">
            <mxPoint x="160" y="130" as="sourcePoint" />
            <mxPoint x="660" y="120" as="targetPoint" />
          </mxGeometry>
        </mxCell>
        <mxCell id="3dr3AcMasKzA3oTOAPOF-166" value="开启/关闭https&lt;div data-lake_diagram_content_editor_data=&quot;true&quot;&gt;&lt;/div&gt;" style="rounded=0;whiteSpace=wrap;html=1;fontFamily=小赖字体 sc;fillColor=#f8cecc;strokeColor=#b85450;container=0;" vertex="1" parent="3dr3AcMasKzA3oTOAPOF-155">
          <mxGeometry x="35" y="110" width="140" height="60" as="geometry" />
        </mxCell>
        <mxCell id="3dr3AcMasKzA3oTOAPOF-167" value="更新ES监控配置的playbook&lt;br&gt;1. 更新/usr/lib/systemd/system/prometheus-es-exporter.service文件；&lt;br&gt;2. 重启prometheus-es-exporter.service" style="rounded=0;whiteSpace=wrap;html=1;fontFamily=小赖字体 sc;fillColor=#f8cecc;strokeColor=#b85450;container=0;align=left;" vertex="1" parent="3dr3AcMasKzA3oTOAPOF-155">
          <mxGeometry x="410" y="185" width="290" height="130" as="geometry" />
        </mxCell>
      </root>
    </mxGraphModel>
  </diagram>
</mxfile>
